<svg version="1.1" id="Layer_1" xmlns="http://www.w3.org/2000/svg" xmlns:xlink="http://www.w3.org/1999/xlink" x="0px" y="0px"
	 width="100%" viewBox="0 0 3584 667" enable-background="new 0 0 3584 667" xml:space="preserve">
<path fill="#FFFFFF" opacity="1.000000" stroke="none" 
	d="
M3585.000000,420.000000 
	C3585.000000,502.648499 3585.000000,585.296997 3585.000000,668.000000 
	C3058.634033,668.000000 2532.267822,668.000000 2005.580566,667.662964 
	C2008.603027,664.642761 2013.205933,662.627625 2015.051392,659.149475 
	C2020.302979,649.251709 2024.807007,638.905762 2028.915771,628.464722 
	C2035.815308,610.931641 2042.292480,593.229065 2048.735107,575.520630 
	C2053.332031,562.886658 2057.581299,550.126465 2062.132080,537.000000 
	C2057.505371,537.000000 2053.327637,537.282471 2049.206787,536.920959 
	C2045.042236,536.555542 2043.236206,538.004333 2041.919922,542.096069 
	C2035.201904,562.979248 2028.100220,583.739319 2021.085205,604.526245 
	C2020.575439,606.036499 2019.686523,607.418701 2018.613281,609.589844 
	C2010.837646,585.810303 2003.449097,563.096497 1995.904419,540.434570 
	C1995.452881,539.078735 1993.812622,537.235962 1992.625610,537.158936 
	C1987.201172,536.806885 1981.741089,537.004272 1975.760376,537.004272 
	C1978.985596,545.959473 1981.990112,554.342102 1985.022705,562.714600 
	C1992.602173,583.640259 2000.234863,604.546692 2007.733521,625.501221 
	C2008.756348,628.359375 2010.208984,631.700867 2009.578491,634.374329 
	C2008.438110,639.209839 2006.110962,643.828918 2003.837646,648.314514 
	C2001.867554,652.202026 1998.500854,654.404541 1993.880249,653.994141 
	C1991.034668,653.741333 1988.194214,653.430176 1985.000000,653.109985 
	C1985.000000,658.377441 1985.000000,663.188721 1985.000000,668.000000 
	C1323.782104,668.000000 662.564148,668.000000 1.000000,668.000000 
	C1.000000,561.967529 1.000000,455.934662 1.358173,349.571899 
	C2.070734,349.606354 2.649418,349.918976 2.747182,350.342529 
	C6.666094,367.321381 15.479661,381.209930 28.831593,392.366333 
	C47.885895,408.287476 70.062996,414.245514 93.977043,409.655884 
	C121.865540,404.303406 142.383743,388.241974 153.236313,361.303955 
	C159.193054,346.518311 161.357880,331.129700 157.129211,315.590759 
	C153.028122,300.520721 155.551437,287.195282 166.424255,276.211578 
	C202.534637,239.732834 238.818863,203.423401 275.325806,167.341843 
	C285.324036,157.460144 297.199860,152.856949 311.909027,156.749420 
	C326.064514,160.495377 340.709381,160.545319 354.632416,155.536896 
	C368.328949,150.609924 381.878418,157.886627 387.896851,167.021042 
	C396.934753,180.738281 401.718842,195.603928 399.120941,212.483765 
	C397.042755,225.986465 392.345398,238.057495 382.674225,247.762161 
	C340.088928,290.494812 297.374725,333.098907 254.750732,375.793060 
	C250.901337,379.648773 247.024384,383.558044 243.741119,387.883392 
	C231.630981,403.837097 223.109863,421.331818 220.901184,441.597534 
	C219.371582,455.632233 219.354813,469.493408 222.650421,483.308319 
	C227.068192,501.827148 236.401596,517.601501 248.459366,532.139465 
	C255.343002,540.438965 257.614716,550.350952 255.071091,561.131714 
	C252.260590,573.043579 250.673630,585.151611 253.228806,597.232056 
	C257.103119,615.549377 265.318298,631.375549 280.065430,643.737488 
	C298.830627,659.467651 320.362396,665.250183 344.028839,661.721619 
	C363.460205,658.824524 379.830505,649.520447 392.663330,634.017883 
	C403.961853,620.368774 409.997559,604.740173 410.717773,587.461609 
	C411.135681,577.435486 408.780029,567.286438 407.589691,557.202515 
	C406.365601,546.832336 408.060272,536.782959 415.368835,529.372681 
	C452.815887,491.404297 490.536316,453.702057 528.478088,416.227722 
	C537.141479,407.671051 548.324219,405.330994 560.390686,407.724670 
	C571.145630,409.858154 581.736450,411.765411 593.000793,410.199677 
	C621.123230,406.290680 641.564514,391.840759 654.386292,366.936157 
	C662.779602,350.633301 664.844910,333.025909 660.956116,314.997009 
	C656.371155,293.740784 645.039307,276.802765 626.744873,265.051178 
	C610.891724,254.867783 593.546509,250.647583 574.455566,252.837646 
	C557.945190,254.731674 543.200256,260.610046 531.207642,271.578064 
	C508.432037,292.407776 499.612122,318.457214 506.058777,349.002319 
	C509.042816,363.141174 505.906830,375.448730 495.810730,385.602417 
	C459.148712,422.473511 422.364380,459.223358 385.516632,495.908966 
	C376.486725,504.899139 365.249878,509.160187 352.719696,506.647888 
	C338.810944,503.859253 325.295898,503.170288 311.369934,506.558960 
	C306.124603,507.835327 300.082214,507.126587 294.645721,506.072296 
	C281.179199,503.460815 273.897430,494.112732 268.851044,481.880249 
	C259.008331,458.021484 264.261871,430.436981 281.532227,413.057068 
	C325.113251,369.199646 369.112305,325.755798 412.473999,281.683929 
	C420.155914,273.876221 426.653076,264.414032 431.814880,254.714127 
	C443.736206,232.311996 446.703735,208.256958 442.058044,183.212952 
	C438.225372,162.551819 428.852142,144.770050 414.806641,129.393051 
	C407.639587,121.546593 405.121613,112.801552 407.769073,102.508354 
	C411.848724,86.646851 412.298737,70.860672 406.985779,55.112549 
	C399.225891,32.111572 384.240692,15.830786 361.872314,6.503386 
	C356.429626,4.233837 350.633575,2.811756 345.000000,1.000001 
	C1424.880493,1.000000 2504.760986,1.000000 3585.000000,1.000000 
	C3585.000000,131.365845 3585.000000,261.732025 3584.657227,392.442108 
	C3579.953125,382.515381 3572.130371,376.011627 3561.589844,373.103027 
	C3548.290039,369.432953 3534.813721,366.408813 3521.451660,362.957520 
	C3505.476318,358.831299 3503.579102,343.985626 3513.152588,333.280609 
	C3517.567871,328.343689 3523.423340,326.976410 3529.413818,326.377686 
	C3540.156250,325.303955 3550.894287,326.231140 3558.265625,335.130951 
	C3562.012695,339.655182 3563.621826,345.950348 3566.292236,351.646606 
	C3571.007812,351.646606 3576.415527,351.646606 3581.782959,351.646606 
	C3583.000000,333.039459 3573.946289,319.816071 3556.787598,313.833740 
	C3545.468262,309.887085 3534.040039,309.061523 3522.427490,311.117188 
	C3513.946533,312.618591 3506.096191,316.152039 3500.126953,322.510956 
	C3491.658203,331.532928 3488.649170,342.725098 3490.159180,354.758453 
	C3491.121582,362.428009 3493.728760,370.181000 3501.456543,373.755249 
	C3509.353271,377.407806 3517.646484,380.321014 3525.968506,382.905884 
	C3535.872314,385.981934 3546.090088,388.050049 3555.985596,391.149658 
	C3563.335938,393.452118 3567.636963,398.885834 3567.964355,406.810547 
	C3568.293945,414.790192 3565.481934,421.034973 3558.042236,425.066772 
	C3549.267090,429.822388 3539.838867,430.924530 3530.331543,429.840729 
	C3519.353760,428.589294 3509.743164,424.198975 3505.483398,412.860779 
	C3503.968994,408.829468 3503.396240,404.444458 3502.435059,400.395691 
	C3496.901367,400.395691 3491.508789,400.395691 3486.180420,400.395691 
	C3484.123047,421.171265 3497.888916,437.649597 3515.214844,442.968048 
	C3526.244385,446.353821 3537.557129,447.153778 3548.775879,444.826416 
	C3559.680664,442.564331 3570.422119,439.228607 3578.079834,430.299622 
	C3580.753906,427.181519 3582.713867,423.450867 3585.000000,420.000000 
M1301.051636,507.386292 
	C1307.704712,519.622192 1314.419922,531.824707 1320.998169,544.100708 
	C1334.997559,570.226013 1349.035034,596.332336 1362.764160,622.599426 
	C1364.795044,626.484741 1366.804443,628.114502 1371.298096,628.101074 
	C1424.127441,627.943665 1476.957153,628.000000 1529.786865,628.000000 
	C1531.432983,628.000000 1533.079102,628.000000 1536.130615,628.000000 
	C1498.750610,568.267517 1461.903198,509.386047 1425.011353,450.433624 
	C1444.115723,441.630432 1460.350586,430.264954 1473.321777,414.288910 
	C1491.093384,392.400238 1499.624756,367.136505 1500.806519,339.400055 
	C1501.302002,327.771484 1500.649536,315.886566 1498.720581,304.420715 
	C1496.808472,293.055847 1493.711426,281.612549 1489.202881,271.026154 
	C1482.111572,254.375565 1471.116577,240.266144 1457.110352,228.453003 
	C1445.169556,218.381927 1431.954102,210.653061 1417.517700,205.098434 
	C1402.990723,199.508957 1387.979492,195.520355 1372.395264,193.948685 
	C1360.688599,192.768051 1349.014526,190.244965 1337.315430,190.179001 
	C1271.488770,189.807892 1205.658813,190.000000 1139.830078,190.000000 
	C1138.252441,190.000000 1136.674927,190.000000 1135.212158,190.000000 
	C1135.212158,336.356140 1135.212158,481.963074 1135.212158,627.766235 
	C1183.153931,627.766235 1230.883423,627.766235 1278.983521,627.766235 
	C1278.983521,575.775574 1278.983521,524.016907 1278.983521,472.042023 
	C1280.173340,472.146210 1281.476440,471.930817 1281.702393,472.328125 
	C1288.184570,483.725403 1294.558716,495.184143 1301.051636,507.386292 
M783.500000,190.000000 
	C776.070862,190.000000 768.641724,190.000000 761.312622,190.000000 
	C761.312622,336.341370 761.312622,482.056213 761.312622,627.680542 
	C865.345398,627.680542 969.065247,627.680542 1072.662598,627.680542 
	C1072.662598,586.632629 1072.662598,545.905029 1072.662598,504.737549 
	C1015.266113,504.737549 958.206116,504.737549 901.375244,504.737549 
	C901.375244,491.226257 901.375244,478.159546 901.375244,464.837463 
	C952.025452,464.837463 1002.300842,464.837463 1052.766846,464.837463 
	C1052.766846,426.509796 1052.766846,388.449066 1052.766846,349.944946 
	C1002.141785,349.944946 951.747498,349.944946 901.272217,349.944946 
	C901.272217,337.435547 901.272217,325.371460 901.272217,312.867218 
	C955.269958,312.867218 1008.997070,312.867218 1062.694214,312.867218 
	C1062.694214,271.696106 1062.694214,230.968765 1062.694214,190.000000 
	C969.759094,190.000000 877.129517,190.000000 783.500000,190.000000 
M1566.000000,207.501251 
	C1566.000000,347.564697 1566.000000,487.628113 1566.000000,627.716919 
	C1615.268188,627.716919 1663.990356,627.716919 1713.149902,627.716919 
	C1713.149902,580.711426 1713.149902,533.987183 1713.149902,487.000702 
	C1714.393799,487.000702 1715.203247,487.017670 1716.012085,486.998291 
	C1740.022217,486.422913 1764.076172,488.316772 1788.045654,485.077087 
	C1805.915894,482.661804 1823.475342,479.236206 1840.458252,473.028320 
	C1865.669067,463.812714 1887.135620,449.374237 1904.125610,428.414917 
	C1921.895386,406.493652 1931.193604,381.171631 1932.769043,353.334320 
	C1933.744141,336.104309 1933.514526,318.785614 1930.195801,301.537811 
	C1925.644897,277.886810 1915.074219,257.558838 1899.229126,239.816528 
	C1888.215942,227.484787 1874.843506,217.818176 1859.857910,211.250626 
	C1845.902100,205.134460 1831.296753,199.870117 1816.457031,196.571487 
	C1800.285889,192.976898 1783.533325,190.460175 1767.004272,190.284653 
	C1701.697021,189.591187 1636.377808,190.000000 1571.063110,190.000000 
	C1569.462891,190.000000 1567.862793,190.000000 1566.000000,190.000000 
	C1566.000000,195.887009 1566.000000,201.194443 1566.000000,207.501251 
M2329.000000,380.500000 
	C2329.000000,367.845367 2329.000000,355.190704 2329.000000,341.120636 
	C2338.386963,355.979828 2346.926758,369.437347 2355.405029,382.933655 
	C2367.187500,401.690247 2378.899902,420.490875 2390.735107,439.214020 
	C2391.485107,440.400482 2393.003174,441.818207 2394.219727,441.872253 
	C2400.326416,442.143494 2406.451660,441.996643 2412.704346,441.996643 
	C2412.704346,398.785095 2412.704346,356.063843 2412.704346,313.346985 
	C2406.678711,313.346985 2400.953369,313.346985 2394.750732,313.346985 
	C2394.750732,346.383942 2394.750732,379.076294 2394.750732,411.768616 
	C2390.563721,407.115265 2387.568604,402.026947 2384.470947,397.001862 
	C2367.976562,370.246124 2351.469971,343.497772 2334.907959,316.784027 
	C2334.024414,315.358673 2332.651855,313.257019 2331.416504,313.192017 
	C2324.680908,312.837891 2317.916992,313.023590 2311.246094,313.023590 
	C2311.246094,356.351013 2311.246094,398.954346 2311.246094,441.702545 
	C2317.218018,441.702545 2322.940430,441.702545 2329.000000,441.702545 
	C2329.000000,421.437866 2329.000000,401.468933 2329.000000,380.500000 
M2586.000000,568.391113 
	C2585.332520,560.544189 2585.359619,552.561340 2583.857666,544.877563 
	C2580.383301,527.106812 2571.155518,513.103943 2554.363525,505.157928 
	C2540.277588,498.492523 2525.372070,497.790314 2510.128906,499.953217 
	C2491.770996,502.558044 2478.459961,512.190735 2469.930664,528.450012 
	C2457.846191,551.486816 2457.643066,575.530273 2466.402100,599.323914 
	C2472.651367,616.299561 2485.228516,627.734680 2503.384033,632.112732 
	C2512.490723,634.308716 2521.551758,635.276917 2531.015137,634.148254 
	C2543.015137,632.716980 2554.029785,629.177063 2563.128174,621.250061 
	C2578.782715,607.611328 2584.818604,589.495361 2586.000000,568.391113 
M2238.450439,319.964569 
	C2222.912109,310.410034 2206.116211,308.743835 2188.295410,310.862244 
	C2162.246582,313.958801 2145.104248,335.403870 2140.002441,358.569397 
	C2137.458496,370.121429 2137.227051,381.766663 2139.032227,393.419128 
	C2141.045166,406.411224 2145.538818,418.630188 2154.783691,428.068420 
	C2173.057373,446.724701 2195.726318,449.357452 2219.732666,442.958130 
	C2247.276123,435.615753 2261.212891,410.480286 2262.783936,385.228119 
	C2263.423096,374.957458 2262.602051,364.367950 2260.768555,354.226776 
	C2258.246094,340.275146 2250.737793,328.826263 2238.450439,319.964569 
M3204.405518,502.903046 
	C3193.713623,506.273590 3185.374512,512.870056 3179.049561,521.958008 
	C3172.253418,531.723511 3168.210205,542.469788 3166.840576,554.461792 
	C3165.269531,568.213684 3165.594727,581.630066 3170.034668,594.810120 
	C3175.266357,610.341309 3184.341553,622.720642 3199.803223,629.261841 
	C3214.864258,635.633606 3230.443115,636.125000 3246.323486,632.361084 
	C3259.220947,629.304077 3269.329590,622.187927 3277.002441,611.699280 
	C3292.347656,590.721985 3293.816406,567.060608 3288.703125,542.705078 
	C3285.917236,529.435974 3279.191406,517.793640 3267.671631,510.027985 
	C3248.221191,496.915985 3227.000488,496.196014 3204.405518,502.903046 
M3139.000000,377.418762 
	C3137.681885,368.228485 3137.028564,358.880615 3134.895020,349.883698 
	C3131.410156,335.188232 3122.572998,323.974030 3109.096680,317.123535 
	C3095.119873,310.018738 3080.156494,308.809631 3064.639404,310.873138 
	C3040.112061,314.134827 3025.225830,328.626312 3017.620850,351.056671 
	C3012.071045,367.424957 3012.127686,384.537720 3016.237549,401.185699 
	C3021.458252,422.332092 3034.245117,437.321594 3055.826416,443.263397 
	C3065.469238,445.918304 3075.353760,446.640350 3085.498047,445.142334 
	C3097.279297,443.402588 3107.957520,439.548584 3116.813232,431.605804 
	C3132.604248,417.443146 3137.846680,398.724426 3139.000000,377.418762 
M3189.000000,342.500000 
	C3189.000000,375.576355 3189.000000,408.652740 3189.000000,441.621887 
	C3195.390381,441.621887 3201.114746,441.621887 3207.153320,441.621887 
	C3207.153320,423.311676 3207.153320,405.377411 3207.153320,387.019775 
	C3221.096436,387.019775 3234.731201,386.608826 3248.316895,387.242920 
	C3253.064453,387.464508 3258.153809,389.513428 3262.266113,392.055756 
	C3268.581543,395.960022 3268.358154,403.292847 3268.903076,409.710632 
	C3269.629883,418.271454 3269.486084,426.904083 3270.113525,435.476807 
	C3270.302002,438.056793 3269.895508,441.911316 3274.331299,441.972809 
	C3280.800293,442.062500 3287.271484,441.995850 3295.028320,441.995850 
	C3293.661133,439.556732 3292.763184,437.992462 3291.901123,436.408569 
	C3290.590820,434.001648 3288.505127,431.687622 3288.167236,429.145630 
	C3287.343994,422.951538 3287.358154,416.647797 3286.993164,410.390656 
	C3286.686523,405.128906 3286.647705,399.823853 3285.903809,394.621887 
	C3284.808594,386.964844 3279.595215,382.167877 3272.620605,378.546844 
	C3284.762207,370.757172 3289.836914,360.326080 3289.124268,346.509094 
	C3288.439209,333.224548 3283.668213,322.516541 3270.926758,317.764862 
	C3263.142090,314.861694 3254.446533,313.528229 3246.093750,313.203064 
	C3228.795654,312.529755 3211.453125,312.994110 3194.128906,313.009735 
	C3192.522217,313.011169 3190.915771,313.149261 3189.000000,313.238281 
	C3189.000000,322.899963 3189.000000,332.199982 3189.000000,342.500000 
M3016.000000,589.500000 
	C3016.000000,603.248169 3016.000000,616.996399 3016.000000,630.004211 
	C3036.895508,630.004211 3057.170166,630.918579 3077.320801,629.731323 
	C3095.272461,628.673645 3106.746338,617.273010 3114.046875,601.302185 
	C3121.774414,584.397766 3122.317383,566.752319 3120.008545,548.743225 
	C3118.398926,536.188354 3113.095215,525.222961 3104.501465,516.180908 
	C3094.856934,506.033417 3082.132324,502.353180 3068.516602,502.076141 
	C3052.538086,501.751068 3036.547607,501.993042 3020.562500,502.011993 
	C3019.127686,502.013702 3017.692871,502.183441 3016.000000,502.291656 
	C3016.000000,531.265259 3016.000000,559.882629 3016.000000,589.500000 
M3368.500000,313.000000 
	C3360.741943,313.000000 3352.983643,313.000000 3345.380859,313.000000 
	C3345.380859,356.404053 3345.380859,399.117004 3345.380859,441.755676 
	C3377.026855,441.755676 3408.291504,441.755676 3439.706055,441.755676 
	C3439.706055,436.452423 3439.706055,431.397705 3439.706055,425.837097 
	C3414.028564,425.837097 3388.641113,425.837097 3363.383057,425.837097 
	C3363.383057,411.602600 3363.383057,397.881256 3363.383057,383.835205 
	C3386.699463,383.835205 3409.634033,383.835205 3432.700684,383.835205 
	C3432.700684,378.442719 3432.700684,373.388092 3432.700684,367.826111 
	C3409.351074,367.826111 3386.295898,367.826111 3363.389404,367.826111 
	C3363.389404,354.922943 3363.389404,342.534119 3363.389404,329.823059 
	C3388.711670,329.823059 3413.645752,329.823059 3438.695312,329.823059 
	C3438.695312,324.098022 3438.695312,318.710052 3438.695312,313.000000 
	C3415.427734,313.000000 3392.463867,313.000000 3368.500000,313.000000 
M2488.036621,378.534149 
	C2500.134033,381.691895 2512.350586,384.466675 2524.279785,388.166748 
	C2530.369629,390.055664 2537.683838,392.177521 2541.392334,396.698212 
	C2549.257568,406.286072 2546.220215,422.219452 2531.684326,426.788086 
	C2524.941162,428.907410 2517.546631,429.908997 2510.468994,429.813110 
	C2494.749756,429.600159 2482.253906,420.766388 2480.863281,403.315918 
	C2480.769287,402.135681 2478.862549,400.245636 2477.686523,400.155823 
	C2472.930176,399.792542 2468.130127,400.005096 2463.395020,400.005096 
	C2462.201172,419.276459 2472.131836,436.603119 2492.574951,442.926941 
	C2505.825684,447.025909 2519.264404,446.795135 2532.708984,443.144440 
	C2541.056641,440.877716 2549.077881,437.717682 2554.891602,431.363647 
	C2563.821045,421.604126 2564.500977,409.278229 2562.389893,397.057098 
	C2560.117920,383.907013 2550.921387,376.555756 2538.601074,373.068146 
	C2524.860596,369.178528 2511.008789,365.679413 2497.185303,362.088348 
	C2490.733887,360.412354 2486.144775,356.594055 2485.123779,349.999390 
	C2483.907959,342.145294 2486.755127,335.530548 2493.468262,330.912811 
	C2500.158447,326.310822 2507.880615,325.289337 2515.550537,326.160767 
	C2524.490967,327.176544 2533.654541,329.085419 2538.386475,338.095917 
	C2540.587646,342.287079 2541.456055,347.178162 2542.935791,351.775452 
	C2548.397217,351.775452 2554.016113,351.775452 2559.969727,351.775452 
	C2559.625244,348.972748 2559.241699,346.434845 2559.012451,343.883118 
	C2558.115967,333.911621 2554.126709,325.699341 2545.675293,319.927887 
	C2537.823242,314.565857 2529.183838,312.004791 2519.723877,310.689789 
	C2507.344971,308.968964 2495.516602,310.451782 2485.161621,316.706635 
	C2471.161133,325.163513 2465.866943,338.499420 2467.924316,354.877869 
	C2469.444824,366.980042 2476.023926,374.433777 2488.036621,378.534149 
M3362.111572,548.595215 
	C3353.068604,542.039551 3353.559326,526.758484 3365.092529,519.462463 
	C3374.615967,513.437622 3384.957764,513.995605 3395.374023,516.796387 
	C3407.551025,520.070679 3412.253174,529.059509 3413.344482,540.695068 
	C3419.291016,540.695068 3425.040039,540.695068 3431.253418,540.695068 
	C3430.800049,537.596680 3430.298828,534.878784 3430.018311,532.138184 
	C3428.610352,518.375427 3420.884277,509.389740 3408.575439,504.039001 
	C3396.842285,498.938446 3384.634521,497.961761 3372.004395,499.933746 
	C3360.706299,501.697754 3351.816406,507.023560 3344.955322,516.091248 
	C3338.854248,524.154114 3338.789795,533.438416 3338.960205,542.883179 
	C3339.075928,549.293335 3341.559082,554.560181 3345.724854,559.246521 
	C3351.357666,565.582825 3359.130859,567.755920 3366.796631,569.941956 
	C3379.120361,573.456299 3391.539551,576.635620 3403.923584,579.937744 
	C3412.379150,582.192444 3416.366211,588.249939 3416.628662,596.426819 
	C3416.846436,603.216003 3414.144287,609.109436 3408.033691,613.017944 
	C3399.150391,618.699829 3389.200439,619.850159 3379.200439,618.780029 
	C3369.577148,617.750183 3360.450195,614.261108 3355.698486,604.941772 
	C3353.263428,600.166443 3352.455322,594.561768 3350.882080,589.231384 
	C3345.649170,589.231384 3340.038818,589.231384 3333.723145,589.231384 
	C3334.177490,592.570129 3334.611572,595.585266 3334.994629,598.606812 
	C3336.676758,611.877991 3343.307373,621.787720 3355.179199,628.019470 
	C3372.495605,637.108948 3390.494385,636.304626 3408.425537,630.651611 
	C3416.966797,627.958984 3424.596924,623.459778 3429.599609,615.149109 
	C3434.439209,607.109131 3434.451172,598.512390 3433.821777,589.882080 
	C3433.490723,585.348694 3432.090088,580.505493 3429.830811,576.573242 
	C3422.956787,564.608826 3410.493896,562.056091 3398.373047,558.937378 
	C3386.441162,555.867310 3374.636719,552.301758 3362.111572,548.595215 
M2349.177002,517.342590 
	C2351.850586,516.681091 2354.489502,515.710144 2357.203125,515.408447 
	C2374.200439,513.519043 2392.367432,517.484558 2394.410889,540.748291 
	C2400.142334,540.748291 2405.890869,540.748291 2412.241455,540.748291 
	C2411.795410,537.715210 2411.277588,535.028015 2411.022217,532.316101 
	C2409.722656,518.519531 2401.979492,509.497772 2389.748535,504.068634 
	C2377.556396,498.656769 2364.721191,497.747253 2351.706787,500.064056 
	C2340.964600,501.976410 2332.409668,507.409119 2325.832275,516.355530 
	C2319.783203,524.583740 2319.881836,533.791748 2319.974609,543.196472 
	C2320.034424,549.247375 2322.445068,554.269470 2326.257324,558.744507 
	C2331.989746,565.473694 2340.060791,567.765015 2348.100098,569.975708 
	C2360.616699,573.417542 2373.261963,576.412659 2385.706299,580.092468 
	C2399.567871,584.191284 2400.499023,601.937195 2392.603027,610.030212 
	C2387.064209,615.707458 2380.053955,617.588379 2372.804688,618.521057 
	C2360.914795,620.050842 2349.503418,618.746643 2340.314941,609.799377 
	C2334.568604,604.203979 2333.203369,596.877319 2332.712402,589.323853 
	C2326.675293,589.323853 2320.934326,589.323853 2314.689209,589.323853 
	C2315.161377,592.776489 2315.580811,595.838867 2315.999268,598.901367 
	C2317.754150,611.748779 2324.212158,621.637573 2335.554443,627.755005 
	C2352.864014,637.091125 2371.126465,636.467163 2389.239502,630.726379 
	C2397.734619,628.033813 2405.535645,623.727844 2410.475342,615.308289 
	C2414.624268,608.237183 2414.708740,600.817688 2415.129639,593.081360 
	C2415.900391,578.913147 2406.375488,566.767822 2393.096191,563.016602 
	C2380.442139,559.442078 2367.613037,556.489136 2354.954346,552.930420 
	C2348.286377,551.055786 2341.022217,549.677551 2338.037598,541.956665 
	C2335.116455,534.400696 2337.591797,523.430359 2349.177002,517.342590 
M2631.320801,313.000244 
	C2626.365479,313.000244 2621.410156,313.000244 2616.000000,313.000244 
	C2616.000000,315.245728 2616.000000,317.032837 2616.000000,318.819946 
	C2616.000000,341.314087 2615.722900,363.813324 2616.138672,386.299774 
	C2616.301514,395.096771 2617.131104,404.083862 2619.227783,412.597504 
	C2622.783447,427.035278 2631.356445,437.401642 2646.238770,442.204834 
	C2658.588623,446.190704 2670.970947,445.876617 2683.297363,443.695709 
	C2695.384521,441.557129 2704.914062,434.752991 2710.947021,423.896454 
	C2715.785645,415.189667 2717.727539,405.433899 2717.870850,395.653076 
	C2718.251221,369.665436 2718.003662,343.668518 2717.989746,317.675293 
	C2717.989014,316.230469 2717.841309,314.785706 2717.761475,313.335602 
	C2711.700928,313.335602 2705.977051,313.335602 2700.000000,313.335602 
	C2700.000000,315.982605 2700.024658,318.296265 2699.996338,320.609283 
	C2699.670410,347.198853 2699.909668,373.811829 2698.821289,400.370361 
	C2697.962402,421.332458 2678.658203,434.133270 2658.313965,428.769287 
	C2642.321777,424.552765 2635.376953,411.591370 2635.132324,397.401062 
	C2634.672852,370.749268 2635.017334,344.083893 2634.962402,317.424286 
	C2634.958740,315.571411 2636.128418,312.667816 2631.320801,313.000244 
M2067.953369,438.545868 
	C2085.520264,428.731323 2094.889648,408.073364 2094.335205,394.000061 
	C2089.866211,394.000061 2085.374512,394.182709 2080.906006,393.936951 
	C2077.839355,393.768280 2076.593018,394.888184 2075.933105,397.859436 
	C2074.336914,405.045532 2071.815918,411.860596 2066.915283,417.613251 
	C2059.223633,426.642090 2049.260742,429.658844 2037.815063,429.001617 
	C2022.011475,428.094055 2011.921143,419.850464 2006.031128,406.626068 
	C1999.927856,392.922882 2000.251953,378.624146 2001.911133,364.078278 
	C2003.912231,346.533264 2015.245361,329.489166 2034.895630,326.563354 
	C2053.006592,323.866791 2069.088623,330.146790 2075.072266,350.012756 
	C2075.415771,351.152832 2076.704834,352.799042 2077.622314,352.844910 
	C2083.003418,353.114044 2088.404785,352.977142 2093.950195,352.977142 
	C2093.528564,351.202728 2093.207031,350.116760 2093.016602,349.008331 
	C2090.275635,333.047577 2081.674316,321.626831 2066.844727,314.919403 
	C2054.902832,309.518005 2042.542114,309.239624 2029.766846,310.890289 
	C2018.048584,312.404388 2008.021362,317.474396 2000.160278,325.650970 
	C1988.048950,338.248260 1982.344116,354.060730 1982.136108,371.477264 
	C1982.028687,380.487854 1982.562378,389.655579 1984.171509,398.504059 
	C1986.963989,413.860443 1993.604858,427.290253 2007.381836,436.072754 
	C2026.808594,448.457092 2046.859131,447.906250 2067.953369,438.545868 
M2641.056641,613.305176 
	C2645.248047,617.277588 2649.083008,621.737122 2653.704590,625.121948 
	C2663.601807,632.370483 2675.054688,634.276917 2687.179932,634.080383 
	C2709.865967,633.712463 2726.269531,623.688965 2735.867920,603.148254 
	C2738.759033,596.960876 2741.079346,590.367310 2740.839600,583.179382 
	C2734.642822,583.179382 2729.014160,583.179382 2723.301514,583.179382 
	C2722.836914,585.051514 2722.436279,586.783997 2721.976807,588.500671 
	C2719.314453,598.443054 2714.808350,607.519775 2705.820068,612.904663 
	C2686.832520,624.280212 2659.177490,617.513916 2650.881836,592.096497 
	C2646.916016,579.945557 2646.284180,567.808838 2647.846191,555.205017 
	C2648.976074,546.089539 2651.245605,537.369568 2656.610107,530.159729 
	C2665.858398,517.729492 2679.185547,513.236023 2694.168213,515.166626 
	C2708.061279,516.956848 2717.199951,525.141113 2721.156250,538.870972 
	C2721.523438,540.145081 2723.406250,541.766479 2724.681641,541.856079 
	C2729.629639,542.203918 2734.616455,541.997681 2740.063232,541.997681 
	C2738.644287,527.565369 2732.141846,516.225891 2721.071777,508.182617 
	C2707.428711,498.270142 2691.627441,497.763763 2675.397949,499.905853 
	C2652.930420,502.871216 2636.185791,522.063110 2631.007324,541.842896 
	C2627.630615,554.740845 2627.110840,567.845459 2629.083740,580.955994 
	C2630.786133,592.268494 2633.371094,603.397095 2641.056641,613.305176 
M2933.002441,520.538574 
	C2931.003906,515.216309 2929.132080,509.840149 2926.907227,504.614197 
	C2926.419922,503.469025 2924.713135,502.188080 2923.502930,502.119965 
	C2918.521729,501.839600 2913.506592,501.840210 2908.525146,502.118988 
	C2907.307373,502.187134 2905.533447,503.452118 2905.091797,504.586060 
	C2899.020020,520.171509 2893.123779,535.825439 2887.211670,551.472839 
	C2879.981201,570.610535 2872.757324,589.750732 2865.570312,608.904785 
	C2862.903076,616.013489 2860.348877,623.164734 2857.583984,630.731689 
	C2864.309326,630.731689 2870.397217,630.731689 2876.609375,630.731689 
	C2880.754150,619.155762 2884.816406,607.522583 2889.183838,596.005310 
	C2889.688965,594.673584 2891.882080,593.148560 2893.311768,593.129211 
	C2908.624023,592.922180 2923.940186,593.000488 2939.340088,593.000488 
	C2943.574707,604.707642 2947.676270,616.304688 2952.051025,627.797913 
	C2952.567871,629.156494 2954.527344,630.766174 2955.908203,630.854980 
	C2961.377686,631.206482 2966.883301,630.999390 2973.095703,630.999390 
	C2959.666260,594.192444 2946.374756,557.764160 2933.002441,520.538574 
M2209.955566,504.045441 
	C2205.289551,516.343445 2200.619385,528.640015 2195.958740,540.939941 
	C2188.536865,560.525879 2181.099854,580.106079 2173.711914,599.704651 
	C2169.826172,610.012207 2166.030518,620.353699 2162.075684,630.999329 
	C2167.769775,630.999329 2172.943604,631.218262 2178.076416,630.855042 
	C2179.468018,630.756592 2181.412109,629.166687 2181.951172,627.805420 
	C2186.077393,617.387146 2190.088379,606.914429 2193.727783,596.318787 
	C2194.619873,593.722229 2195.656250,592.951172 2198.176514,592.964417 
	C2212.332275,593.039001 2226.489258,593.063721 2240.644531,592.946777 
	C2243.462891,592.923462 2244.527100,593.885193 2245.400146,596.617310 
	C2248.711426,606.979675 2252.381836,617.229370 2256.059814,627.470276 
	C2256.534668,628.792847 2257.789551,630.773499 2258.767334,630.824036 
	C2264.788574,631.135559 2270.833740,630.980408 2277.359375,630.980408 
	C2276.574463,628.419128 2276.129150,626.700867 2275.526611,625.039490 
	C2261.855713,587.342896 2248.132568,549.665039 2234.505127,511.952606 
	C2230.926025,502.047485 2231.056152,501.905151 2220.349854,502.054810 
	C2216.908203,502.102905 2213.475830,502.795837 2209.955566,504.045441 
M2934.284180,441.997559 
	C2938.134033,442.329315 2936.959473,439.421844 2936.962158,437.571869 
	C2937.013916,403.581726 2937.000000,369.591431 2937.000000,335.601196 
	C2937.000000,333.834930 2937.000000,332.068695 2937.000000,329.797119 
	C2951.677490,329.797119 2965.739014,329.797119 2979.767822,329.797119 
	C2979.767822,324.007996 2979.767822,318.735809 2979.767822,313.273346 
	C2945.152832,313.273346 2910.770020,313.273346 2876.323486,313.273346 
	C2876.323486,318.941162 2876.323486,324.328766 2876.323486,330.226532 
	C2890.368652,330.226532 2904.095703,330.226532 2918.137939,330.226532 
	C2918.137939,367.672577 2918.137939,404.604675 2918.137939,441.999756 
	C2923.410400,441.999756 2928.365479,441.999756 2934.284180,441.997559 
M2774.720215,441.997711 
	C2800.987549,441.997711 2827.254639,441.997711 2853.725830,441.997711 
	C2853.725830,436.491272 2853.725830,431.438110 2853.725830,425.885254 
	C2832.408203,425.885254 2811.358643,425.885254 2789.831055,425.885254 
	C2789.831055,388.015167 2789.831055,350.643921 2789.831055,313.375000 
	C2783.614014,313.375000 2777.890381,313.375000 2772.001709,313.375000 
	C2772.001709,355.540771 2771.989990,397.331848 2772.075439,439.122772 
	C2772.077393,440.076935 2773.176758,441.028839 2774.720215,441.997711 
M2813.000000,560.500000 
	C2813.000000,541.081055 2813.000000,521.662048 2813.000000,502.391846 
	C2806.583252,502.391846 2800.856934,502.391846 2795.253418,502.391846 
	C2795.253418,545.380615 2795.253418,587.977051 2795.253418,630.696655 
	C2801.231934,630.696655 2806.953613,630.696655 2812.594971,630.696655 
	C2812.772461,630.090454 2812.940430,629.784485 2812.940918,629.478271 
	C2812.968994,606.818848 2812.983887,584.159424 2813.000000,560.500000 
z"/>
<path fill="#0F96CB" opacity="1.000000" stroke="none" 
	d="
M344.531342,1.000001 
	C350.633575,2.811756 356.429626,4.233837 361.872314,6.503386 
	C384.240692,15.830786 399.225891,32.111572 406.985779,55.112549 
	C412.298737,70.860672 411.848724,86.646851 407.769073,102.508354 
	C405.121613,112.801552 407.639587,121.546593 414.806641,129.393051 
	C428.852142,144.770050 438.225372,162.551819 442.058044,183.212952 
	C446.703735,208.256958 443.736206,232.311996 431.814880,254.714127 
	C426.653076,264.414032 420.155914,273.876221 412.473999,281.683929 
	C369.112305,325.755798 325.113251,369.199646 281.532227,413.057068 
	C264.261871,430.436981 259.008331,458.021484 268.851044,481.880249 
	C273.897430,494.112732 281.179199,503.460815 294.645721,506.072296 
	C300.082214,507.126587 306.124603,507.835327 311.369934,506.558960 
	C325.295898,503.170288 338.810944,503.859253 352.719696,506.647888 
	C365.249878,509.160187 376.486725,504.899139 385.516632,495.908966 
	C422.364380,459.223358 459.148712,422.473511 495.810730,385.602417 
	C505.906830,375.448730 509.042816,363.141174 506.058777,349.002319 
	C499.612122,318.457214 508.432037,292.407776 531.207642,271.578064 
	C543.200256,260.610046 557.945190,254.731674 574.455566,252.837646 
	C593.546509,250.647583 610.891724,254.867783 626.744873,265.051178 
	C645.039307,276.802765 656.371155,293.740784 660.956116,314.997009 
	C664.844910,333.025909 662.779602,350.633301 654.386292,366.936157 
	C641.564514,391.840759 621.123230,406.290680 593.000793,410.199677 
	C581.736450,411.765411 571.145630,409.858154 560.390686,407.724670 
	C548.324219,405.330994 537.141479,407.671051 528.478088,416.227722 
	C490.536316,453.702057 452.815887,491.404297 415.368835,529.372681 
	C408.060272,536.782959 406.365601,546.832336 407.589691,557.202515 
	C408.780029,567.286438 411.135681,577.435486 410.717773,587.461609 
	C409.997559,604.740173 403.961853,620.368774 392.663330,634.017883 
	C379.830505,649.520447 363.460205,658.824524 344.028839,661.721619 
	C320.362396,665.250183 298.830627,659.467651 280.065430,643.737488 
	C265.318298,631.375549 257.103119,615.549377 253.228806,597.232056 
	C250.673630,585.151611 252.260590,573.043579 255.071091,561.131714 
	C257.614716,550.350952 255.343002,540.438965 248.459366,532.139465 
	C236.401596,517.601501 227.068192,501.827148 222.650421,483.308319 
	C219.354813,469.493408 219.371582,455.632233 220.901184,441.597534 
	C223.109863,421.331818 231.630981,403.837097 243.741119,387.883392 
	C247.024384,383.558044 250.901337,379.648773 254.750732,375.793060 
	C297.374725,333.098907 340.088928,290.494812 382.674225,247.762161 
	C392.345398,238.057495 397.042755,225.986465 399.120941,212.483765 
	C401.718842,195.603928 396.934753,180.738281 387.896851,167.021042 
	C381.878418,157.886627 368.328949,150.609924 354.632416,155.536896 
	C340.709381,160.545319 326.064514,160.495377 311.909027,156.749420 
	C297.199860,152.856949 285.324036,157.460144 275.325806,167.341843 
	C238.818863,203.423401 202.534637,239.732834 166.424255,276.211578 
	C155.551437,287.195282 153.028122,300.520721 157.129211,315.590759 
	C161.357880,331.129700 159.193054,346.518311 153.236313,361.303955 
	C142.383743,388.241974 121.865540,404.303406 93.977043,409.655884 
	C70.062996,414.245514 47.885895,408.287476 28.831593,392.366333 
	C15.479661,381.209930 6.666094,367.321381 2.747182,350.342529 
	C2.649418,349.918976 2.070734,349.606354 1.358173,349.121002 
	C1.000000,337.645782 1.000000,326.291534 1.358144,314.347687 
	C2.109988,313.240814 2.722782,312.777710 2.865827,312.198578 
	C8.703154,288.565155 22.859264,271.343414 44.287697,260.469269 
	C62.616432,251.168106 82.128120,249.997299 102.022713,255.064056 
	C113.674873,258.031647 124.251877,254.874191 132.387573,246.855591 
	C170.825745,208.970642 208.992706,170.805984 246.874939,132.365158 
	C254.891922,124.229958 257.982300,113.655304 255.073975,101.990051 
	C252.105759,90.084595 250.884766,77.938004 253.209976,65.898109 
	C257.018677,46.176720 266.610443,29.530066 282.597870,17.104849 
	C287.407806,13.366619 292.999084,10.473826 298.561707,7.907400 
	C304.505005,5.165349 310.837433,3.266765 317.000000,0.999999 
	C326.020905,1.000000 335.041779,1.000000 344.531342,1.000001 
M623.928833,280.443848 
	C621.064270,278.578186 618.309265,276.511444 615.316467,274.881226 
	C601.391785,267.296509 586.631592,264.177979 570.937500,267.568176 
	C556.175537,270.757080 543.631348,277.800598 533.863586,289.590240 
	C520.392639,305.849487 515.152100,324.311127 519.580078,344.971313 
	C522.820435,360.090240 530.519287,372.885223 542.946106,382.399353 
	C558.783325,394.524567 576.409363,399.521851 596.302795,395.342468 
	C615.975769,391.209412 630.578857,379.948517 640.375427,362.877747 
	C648.034973,349.530762 650.158752,334.909668 647.278564,319.489929 
	C644.333862,303.725067 636.061829,291.422028 623.928833,280.443848 
M366.275055,528.054260 
	C352.753387,520.884155 338.895325,516.326721 323.071899,518.829163 
	C306.856567,521.393616 293.516479,528.394409 282.813721,540.681519 
	C270.391388,554.942688 264.788391,571.275513 266.926178,590.315796 
	C269.108643,609.753967 278.283630,625.016541 293.904205,636.259888 
	C311.249756,648.744812 330.514008,651.689941 350.973602,645.481262 
	C364.588165,641.349792 375.221100,632.993713 383.861450,621.726746 
	C399.866302,600.856384 401.007233,570.939636 386.537689,548.783020 
	C381.212860,540.629272 374.415222,534.287537 366.275055,528.054260 
M395.991119,90.205421 
	C395.995544,84.014610 396.444580,77.785873 395.920349,71.640160 
	C394.395447,53.763962 385.667999,39.172985 371.820129,28.714825 
	C350.076996,12.293985 326.082886,9.644910 301.359283,22.317026 
	C275.547729,35.546791 262.355865,63.678474 267.226624,90.856812 
	C269.957214,106.093201 277.303314,119.251282 289.700531,129.279495 
	C304.702637,141.414825 321.325745,147.084656 340.744568,144.072784 
	C359.725281,141.128860 374.536407,131.881271 385.426270,116.147415 
	C390.701874,108.525116 393.743622,99.987297 395.991119,90.205421 
M80.415596,266.000153 
	C77.653717,266.333008 74.897972,266.732452 72.128914,266.987427 
	C58.842369,268.210815 47.179962,273.490570 37.390160,282.262817 
	C21.904547,296.138885 14.052678,313.407684 14.869802,334.639954 
	C15.429270,349.177246 20.295225,362.012451 29.470129,372.690765 
	C44.536228,390.225555 63.615452,399.003174 87.384102,396.091644 
	C101.905678,394.312805 114.591057,388.644104 124.762512,378.513611 
	C140.346786,362.992188 147.583221,344.152252 144.003281,321.891846 
	C141.119720,303.961609 132.443405,289.684784 117.703369,278.862640 
	C106.781021,270.843445 94.488167,267.361115 80.415596,266.000153 
z"/>
<path fill="#FFFFFF" opacity="1.000000" stroke="none" 
	d="
M316.531342,0.999999 
	C310.837433,3.266765 304.505005,5.165349 298.561707,7.907400 
	C292.999084,10.473826 287.407806,13.366619 282.597870,17.104849 
	C266.610443,29.530066 257.018677,46.176720 253.209976,65.898109 
	C250.884766,77.938004 252.105759,90.084595 255.073975,101.990051 
	C257.982300,113.655304 254.891922,124.229958 246.874939,132.365158 
	C208.992706,170.805984 170.825745,208.970642 132.387573,246.855591 
	C124.251877,254.874191 113.674873,258.031647 102.022713,255.064056 
	C82.128120,249.997299 62.616432,251.168106 44.287697,260.469269 
	C22.859264,271.343414 8.703154,288.565155 2.865827,312.198578 
	C2.722782,312.777710 2.109988,313.240814 1.358144,313.879028 
	C1.000000,209.739258 1.000000,105.478500 1.000000,1.000000 
	C106.020798,1.000000 211.041733,1.000000 316.531342,0.999999 
z"/>
<path fill="#0F96CB" opacity="1.000000" stroke="none" 
	d="
M3585.000000,419.531311 
	C3582.713867,423.450867 3580.753906,427.181519 3578.079834,430.299622 
	C3570.422119,439.228607 3559.680664,442.564331 3548.775879,444.826416 
	C3537.557129,447.153778 3526.244385,446.353821 3515.214844,442.968048 
	C3497.888916,437.649597 3484.123047,421.171265 3486.180420,400.395691 
	C3491.508789,400.395691 3496.901367,400.395691 3502.435059,400.395691 
	C3503.396240,404.444458 3503.968994,408.829468 3505.483398,412.860779 
	C3509.743164,424.198975 3519.353760,428.589294 3530.331543,429.840729 
	C3539.838867,430.924530 3549.267090,429.822388 3558.042236,425.066772 
	C3565.481934,421.034973 3568.293945,414.790192 3567.964355,406.810547 
	C3567.636963,398.885834 3563.335938,393.452118 3555.985596,391.149658 
	C3546.090088,388.050049 3535.872314,385.981934 3525.968506,382.905884 
	C3517.646484,380.321014 3509.353271,377.407806 3501.456543,373.755249 
	C3493.728760,370.181000 3491.121582,362.428009 3490.159180,354.758453 
	C3488.649170,342.725098 3491.658203,331.532928 3500.126953,322.510956 
	C3506.096191,316.152039 3513.946533,312.618591 3522.427490,311.117188 
	C3534.040039,309.061523 3545.468262,309.887085 3556.787598,313.833740 
	C3573.946289,319.816071 3583.000000,333.039459 3581.782959,351.646606 
	C3576.415527,351.646606 3571.007812,351.646606 3566.292236,351.646606 
	C3563.621826,345.950348 3562.012695,339.655182 3558.265625,335.130951 
	C3550.894287,326.231140 3540.156250,325.303955 3529.413818,326.377686 
	C3523.423340,326.976410 3517.567871,328.343689 3513.152588,333.280609 
	C3503.579102,343.985626 3505.476318,358.831299 3521.451660,362.957520 
	C3534.813721,366.408813 3548.290039,369.432953 3561.589844,373.103027 
	C3572.130371,376.011627 3579.953125,382.515381 3584.657227,392.893005 
	C3585.000000,401.687561 3585.000000,410.375122 3585.000000,419.531311 
z"/>
<path fill="#0F96CB" opacity="1.000000" stroke="none" 
	d="
M1985.468384,668.000000 
	C1985.000000,663.188721 1985.000000,658.377441 1985.000000,653.109985 
	C1988.194214,653.430176 1991.034668,653.741333 1993.880249,653.994141 
	C1998.500854,654.404541 2001.867554,652.202026 2003.837646,648.314514 
	C2006.110962,643.828918 2008.438110,639.209839 2009.578491,634.374329 
	C2010.208984,631.700867 2008.756348,628.359375 2007.733521,625.501221 
	C2000.234863,604.546692 1992.602173,583.640259 1985.022705,562.714600 
	C1981.990112,554.342102 1978.985596,545.959473 1975.760376,537.004272 
	C1981.741089,537.004272 1987.201172,536.806885 1992.625610,537.158936 
	C1993.812622,537.235962 1995.452881,539.078735 1995.904419,540.434570 
	C2003.449097,563.096497 2010.837646,585.810303 2018.613281,609.589844 
	C2019.686523,607.418701 2020.575439,606.036499 2021.085205,604.526245 
	C2028.100220,583.739319 2035.201904,562.979248 2041.919922,542.096069 
	C2043.236206,538.004333 2045.042236,536.555542 2049.206787,536.920959 
	C2053.327637,537.282471 2057.505371,537.000000 2062.132080,537.000000 
	C2057.581299,550.126465 2053.332031,562.886658 2048.735107,575.520630 
	C2042.292480,593.229065 2035.815308,610.931641 2028.915771,628.464722 
	C2024.807007,638.905762 2020.302979,649.251709 2015.051392,659.149475 
	C2013.205933,662.627625 2008.603027,664.642761 2005.129639,667.662964 
	C1998.645630,668.000000 1992.291138,668.000000 1985.468384,668.000000 
z"/>
<path fill="#293055" opacity="1.000000" stroke="none" 
	d="
M1301.000977,507.009644 
	C1294.558716,495.184143 1288.184570,483.725403 1281.702393,472.328125 
	C1281.476440,471.930817 1280.173340,472.146210 1278.983521,472.042023 
	C1278.983521,524.016907 1278.983521,575.775574 1278.983521,627.766235 
	C1230.883423,627.766235 1183.153931,627.766235 1135.212158,627.766235 
	C1135.212158,481.963074 1135.212158,336.356140 1135.212158,190.000000 
	C1136.674927,190.000000 1138.252441,190.000000 1139.830078,190.000000 
	C1205.658813,190.000000 1271.488770,189.807892 1337.315430,190.179001 
	C1349.014526,190.244965 1360.688599,192.768051 1372.395264,193.948685 
	C1387.979492,195.520355 1402.990723,199.508957 1417.517700,205.098434 
	C1431.954102,210.653061 1445.169556,218.381927 1457.110352,228.453003 
	C1471.116577,240.266144 1482.111572,254.375565 1489.202881,271.026154 
	C1493.711426,281.612549 1496.808472,293.055847 1498.720581,304.420715 
	C1500.649536,315.886566 1501.302002,327.771484 1500.806519,339.400055 
	C1499.624756,367.136505 1491.093384,392.400238 1473.321777,414.288910 
	C1460.350586,430.264954 1444.115723,441.630432 1425.011353,450.433624 
	C1461.903198,509.386047 1498.750610,568.267517 1536.130615,628.000000 
	C1533.079102,628.000000 1531.432983,628.000000 1529.786865,628.000000 
	C1476.957153,628.000000 1424.127441,627.943665 1371.298096,628.101074 
	C1366.804443,628.114502 1364.795044,626.484741 1362.764160,622.599426 
	C1349.035034,596.332336 1334.997559,570.226013 1320.998169,544.100708 
	C1314.419922,531.824707 1307.704712,519.622192 1301.000977,507.009644 
M1341.487183,310.928467 
	C1335.208374,307.609833 1328.593872,305.861847 1321.415649,305.933716 
	C1307.069458,306.077393 1292.720947,305.976349 1278.238159,305.976349 
	C1278.238159,328.199890 1278.238159,350.911133 1278.238159,372.982086 
	C1293.839600,372.982086 1309.294312,373.998138 1324.511353,372.536682 
	C1331.699341,371.846375 1339.228882,367.460419 1345.217529,362.920563 
	C1361.689941,350.432922 1359.064453,319.866364 1341.487183,310.928467 
z"/>
<path fill="#293055" opacity="1.000000" stroke="none" 
	d="
M784.000000,190.000000 
	C877.129517,190.000000 969.759094,190.000000 1062.694214,190.000000 
	C1062.694214,230.968765 1062.694214,271.696106 1062.694214,312.867218 
	C1008.997070,312.867218 955.269958,312.867218 901.272217,312.867218 
	C901.272217,325.371460 901.272217,337.435547 901.272217,349.944946 
	C951.747498,349.944946 1002.141785,349.944946 1052.766846,349.944946 
	C1052.766846,388.449066 1052.766846,426.509796 1052.766846,464.837463 
	C1002.300842,464.837463 952.025452,464.837463 901.375244,464.837463 
	C901.375244,478.159546 901.375244,491.226257 901.375244,504.737549 
	C958.206116,504.737549 1015.266113,504.737549 1072.662598,504.737549 
	C1072.662598,545.905029 1072.662598,586.632629 1072.662598,627.680542 
	C969.065247,627.680542 865.345398,627.680542 761.312622,627.680542 
	C761.312622,482.056213 761.312622,336.341370 761.312622,190.000000 
	C768.641724,190.000000 776.070862,190.000000 784.000000,190.000000 
z"/>
<path fill="#293055" opacity="1.000000" stroke="none" 
	d="
M1566.000000,207.001556 
	C1566.000000,201.194443 1566.000000,195.887009 1566.000000,190.000000 
	C1567.862793,190.000000 1569.462891,190.000000 1571.063110,190.000000 
	C1636.377808,190.000000 1701.697021,189.591187 1767.004272,190.284653 
	C1783.533325,190.460175 1800.285889,192.976898 1816.457031,196.571487 
	C1831.296753,199.870117 1845.902100,205.134460 1859.857910,211.250626 
	C1874.843506,217.818176 1888.215942,227.484787 1899.229126,239.816528 
	C1915.074219,257.558838 1925.644897,277.886810 1930.195801,301.537811 
	C1933.514526,318.785614 1933.744141,336.104309 1932.769043,353.334320 
	C1931.193604,381.171631 1921.895386,406.493652 1904.125610,428.414917 
	C1887.135620,449.374237 1865.669067,463.812714 1840.458252,473.028320 
	C1823.475342,479.236206 1805.915894,482.661804 1788.045654,485.077087 
	C1764.076172,488.316772 1740.022217,486.422913 1716.012085,486.998291 
	C1715.203247,487.017670 1714.393799,487.000702 1713.149902,487.000702 
	C1713.149902,533.987183 1713.149902,580.711426 1713.149902,627.716919 
	C1663.990356,627.716919 1615.268188,627.716919 1566.000000,627.716919 
	C1566.000000,487.628113 1566.000000,347.564697 1566.000000,207.001556 
M1713.000000,322.501221 
	C1713.000000,339.579498 1713.000000,356.657776 1713.000000,373.998657 
	C1726.208008,373.998657 1738.863770,374.532471 1751.449219,373.821899 
	C1760.741821,373.297272 1769.357666,369.612305 1776.739136,363.717163 
	C1785.866333,356.427856 1787.375977,346.370880 1787.091919,335.447021 
	C1786.840576,325.792023 1782.734985,318.417511 1775.089355,313.090576 
	C1768.326416,308.378662 1760.515503,306.112366 1752.264893,306.011078 
	C1739.267090,305.851532 1726.265991,305.968658 1713.000000,305.968658 
	C1713.000000,310.895508 1713.000000,316.198669 1713.000000,322.501221 
z"/>
<path fill="#0F96CB" opacity="1.000000" stroke="none" 
	d="
M2329.000000,381.000000 
	C2329.000000,401.468933 2329.000000,421.437866 2329.000000,441.702545 
	C2322.940430,441.702545 2317.218018,441.702545 2311.246094,441.702545 
	C2311.246094,398.954346 2311.246094,356.351013 2311.246094,313.023590 
	C2317.916992,313.023590 2324.680908,312.837891 2331.416504,313.192017 
	C2332.651855,313.257019 2334.024414,315.358673 2334.907959,316.784027 
	C2351.469971,343.497772 2367.976562,370.246124 2384.470947,397.001862 
	C2387.568604,402.026947 2390.563721,407.115265 2394.750732,411.768616 
	C2394.750732,379.076294 2394.750732,346.383942 2394.750732,313.346985 
	C2400.953369,313.346985 2406.678711,313.346985 2412.704346,313.346985 
	C2412.704346,356.063843 2412.704346,398.785095 2412.704346,441.996643 
	C2406.451660,441.996643 2400.326416,442.143494 2394.219727,441.872253 
	C2393.003174,441.818207 2391.485107,440.400482 2390.735107,439.214020 
	C2378.899902,420.490875 2367.187500,401.690247 2355.405029,382.933655 
	C2346.926758,369.437347 2338.386963,355.979828 2329.000000,341.120636 
	C2329.000000,355.190704 2329.000000,367.845367 2329.000000,381.000000 
z"/>
<path fill="#0F96CB" opacity="1.000000" stroke="none" 
	d="
M2586.000000,568.872864 
	C2584.818604,589.495361 2578.782715,607.611328 2563.128174,621.250061 
	C2554.029785,629.177063 2543.015137,632.716980 2531.015137,634.148254 
	C2521.551758,635.276917 2512.490723,634.308716 2503.384033,632.112732 
	C2485.228516,627.734680 2472.651367,616.299561 2466.402100,599.323914 
	C2457.643066,575.530273 2457.846191,551.486816 2469.930664,528.450012 
	C2478.459961,512.190735 2491.770996,502.558044 2510.128906,499.953217 
	C2525.372070,497.790314 2540.277588,498.492523 2554.363525,505.157928 
	C2571.155518,513.103943 2580.383301,527.106812 2583.857666,544.877563 
	C2585.359619,552.561340 2585.332520,560.544189 2586.000000,568.872864 
M2525.437988,618.000000 
	C2545.140869,617.785889 2554.063477,609.348511 2560.630859,595.502869 
	C2567.257324,581.532532 2568.841064,566.536194 2565.940186,551.303406 
	C2563.587891,538.952209 2557.846924,528.292969 2546.902832,521.616821 
	C2537.642090,515.967712 2527.479004,513.894470 2516.349854,515.861694 
	C2501.640381,518.461792 2490.950195,526.120667 2485.122314,539.583374 
	C2477.575928,557.015442 2477.750732,575.051331 2484.132324,592.810303 
	C2487.691895,602.716492 2494.249512,610.819214 2504.335938,614.453674 
	C2510.655029,616.730713 2517.737305,616.890320 2525.437988,618.000000 
z"/>
<path fill="#0F96CB" opacity="1.000000" stroke="none" 
	d="
M2238.721191,320.214417 
	C2250.737793,328.826263 2258.246094,340.275146 2260.768555,354.226776 
	C2262.602051,364.367950 2263.423096,374.957458 2262.783936,385.228119 
	C2261.212891,410.480286 2247.276123,435.615753 2219.732666,442.958130 
	C2195.726318,449.357452 2173.057373,446.724701 2154.783691,428.068420 
	C2145.538818,418.630188 2141.045166,406.411224 2139.032227,393.419128 
	C2137.227051,381.766663 2137.458496,370.121429 2140.002441,358.569397 
	C2145.104248,335.403870 2162.246582,313.958801 2188.295410,310.862244 
	C2206.116211,308.743835 2222.912109,310.410034 2238.721191,320.214417 
M2232.018555,339.525299 
	C2221.983398,328.821045 2209.727783,325.007324 2195.231201,326.919220 
	C2176.987549,329.325317 2165.607910,339.655365 2160.064209,356.667267 
	C2156.074951,368.908966 2155.462646,381.717987 2158.324951,394.133972 
	C2160.982666,405.663605 2165.889160,416.543121 2176.740479,423.192474 
	C2185.484131,428.550446 2195.199463,429.472198 2205.166016,428.998535 
	C2218.975098,428.342224 2229.493164,422.473785 2236.046387,409.931915 
	C2242.790039,397.025574 2245.579102,383.487213 2244.066650,368.935883 
	C2242.943115,358.128448 2239.865479,348.274323 2232.018555,339.525299 
z"/>
<path fill="#0F96CB" opacity="1.000000" stroke="none" 
	d="
M3204.735596,502.671082 
	C3227.000488,496.196014 3248.221191,496.915985 3267.671631,510.027985 
	C3279.191406,517.793640 3285.917236,529.435974 3288.703125,542.705078 
	C3293.816406,567.060608 3292.347656,590.721985 3277.002441,611.699280 
	C3269.329590,622.187927 3259.220947,629.304077 3246.323486,632.361084 
	C3230.443115,636.125000 3214.864258,635.633606 3199.803223,629.261841 
	C3184.341553,622.720642 3175.266357,610.341309 3170.034668,594.810120 
	C3165.594727,581.630066 3165.269531,568.213684 3166.840576,554.461792 
	C3168.210205,542.469788 3172.253418,531.723511 3179.049561,521.958008 
	C3185.374512,512.870056 3193.713623,506.273590 3204.735596,502.671082 
M3253.571289,611.083618 
	C3257.365967,606.468872 3261.833984,602.248718 3264.818115,597.158752 
	C3271.409668,585.915283 3272.202393,573.366882 3272.109863,560.541565 
	C3271.931641,535.748901 3252.929199,510.742249 3222.050049,515.886475 
	C3207.995117,518.227966 3197.845947,525.621216 3191.202637,537.696594 
	C3185.357422,548.321472 3184.650146,560.158997 3184.958496,572.107361 
	C3185.454590,591.329285 3196.113281,614.891968 3219.956299,617.478271 
	C3231.527100,618.733459 3242.940186,618.856445 3253.571289,611.083618 
z"/>
<path fill="#0F96CB" opacity="1.000000" stroke="none" 
	d="
M3139.000000,377.897980 
	C3137.846680,398.724426 3132.604248,417.443146 3116.813232,431.605804 
	C3107.957520,439.548584 3097.279297,443.402588 3085.498047,445.142334 
	C3075.353760,446.640350 3065.469238,445.918304 3055.826416,443.263397 
	C3034.245117,437.321594 3021.458252,422.332092 3016.237549,401.185699 
	C3012.127686,384.537720 3012.071045,367.424957 3017.620850,351.056671 
	C3025.225830,328.626312 3040.112061,314.134827 3064.639404,310.873138 
	C3080.156494,308.809631 3095.119873,310.018738 3109.096680,317.123535 
	C3122.572998,323.974030 3131.410156,335.188232 3134.895020,349.883698 
	C3137.028564,358.880615 3137.681885,368.228485 3139.000000,377.897980 
M3042.480469,343.014984 
	C3040.646973,346.251770 3038.424805,349.332123 3037.048096,352.752808 
	C3031.447510,366.671082 3030.641113,381.239746 3034.248291,395.542053 
	C3037.434570,408.175812 3043.201660,419.487457 3056.510254,425.357758 
	C3065.070801,429.133881 3073.757812,429.340698 3082.578125,428.904388 
	C3094.790283,428.300171 3104.320068,422.651459 3110.548096,411.930969 
	C3119.482910,396.550964 3122.158203,379.916260 3118.843994,362.643921 
	C3116.052979,348.099731 3108.972656,336.009888 3094.494385,329.948730 
	C3086.579102,326.635223 3078.336670,325.324432 3069.693604,326.954224 
	C3058.900879,328.989349 3049.531982,333.253082 3042.480469,343.014984 
z"/>
<path fill="#0F96CB" opacity="1.000000" stroke="none" 
	d="
M3189.000000,342.000000 
	C3189.000000,332.199982 3189.000000,322.899963 3189.000000,313.238281 
	C3190.915771,313.149261 3192.522217,313.011169 3194.128906,313.009735 
	C3211.453125,312.994110 3228.795654,312.529755 3246.093750,313.203064 
	C3254.446533,313.528229 3263.142090,314.861694 3270.926758,317.764862 
	C3283.668213,322.516541 3288.439209,333.224548 3289.124268,346.509094 
	C3289.836914,360.326080 3284.762207,370.757172 3272.620605,378.546844 
	C3279.595215,382.167877 3284.808594,386.964844 3285.903809,394.621887 
	C3286.647705,399.823853 3286.686523,405.128906 3286.993164,410.390656 
	C3287.358154,416.647797 3287.343994,422.951538 3288.167236,429.145630 
	C3288.505127,431.687622 3290.590820,434.001648 3291.901123,436.408569 
	C3292.763184,437.992462 3293.661133,439.556732 3295.028320,441.995850 
	C3287.271484,441.995850 3280.800293,442.062500 3274.331299,441.972809 
	C3269.895508,441.911316 3270.302002,438.056793 3270.113525,435.476807 
	C3269.486084,426.904083 3269.629883,418.271454 3268.903076,409.710632 
	C3268.358154,403.292847 3268.581543,395.960022 3262.266113,392.055756 
	C3258.153809,389.513428 3253.064453,387.464508 3248.316895,387.242920 
	C3234.731201,386.608826 3221.096436,387.019775 3207.153320,387.019775 
	C3207.153320,405.377411 3207.153320,423.311676 3207.153320,441.621887 
	C3201.114746,441.621887 3195.390381,441.621887 3189.000000,441.621887 
	C3189.000000,408.652740 3189.000000,375.576355 3189.000000,342.000000 
M3216.537109,372.000000 
	C3226.013184,372.000000 3235.489258,372.001190 3244.965332,371.999756 
	C3260.796875,371.997345 3267.003906,367.513336 3270.166260,352.337738 
	C3271.931641,343.866150 3267.935547,333.232697 3258.497803,331.050537 
	C3254.398926,330.102844 3250.190918,329.173615 3246.015869,329.092010 
	C3233.118652,328.839996 3220.213379,329.000000 3207.321045,329.000000 
	C3207.321045,343.648163 3207.321045,357.679810 3207.321045,372.000000 
	C3210.276123,372.000000 3212.912842,372.000000 3216.537109,372.000000 
z"/>
<path fill="#0F96CB" opacity="1.000000" stroke="none" 
	d="
M3016.000000,589.000000 
	C3016.000000,559.882629 3016.000000,531.265259 3016.000000,502.291656 
	C3017.692871,502.183441 3019.127686,502.013702 3020.562500,502.011993 
	C3036.547607,501.993042 3052.538086,501.751068 3068.516602,502.076141 
	C3082.132324,502.353180 3094.856934,506.033417 3104.501465,516.180908 
	C3113.095215,525.222961 3118.398926,536.188354 3120.008545,548.743225 
	C3122.317383,566.752319 3121.774414,584.397766 3114.046875,601.302185 
	C3106.746338,617.273010 3095.272461,628.673645 3077.320801,629.731323 
	C3057.170166,630.918579 3036.895508,630.004211 3016.000000,630.004211 
	C3016.000000,616.996399 3016.000000,603.248169 3016.000000,589.000000 
M3035.000000,584.500000 
	C3035.000000,594.584961 3035.000000,604.669983 3035.000000,615.000000 
	C3046.144531,615.000000 3056.616211,615.082520 3067.086426,614.979187 
	C3080.241699,614.849304 3090.201660,608.920166 3095.872559,597.144775 
	C3105.312256,577.543396 3105.175293,557.407715 3096.988525,537.443420 
	C3093.420410,528.742126 3086.856934,522.587097 3077.569092,520.045715 
	C3063.618164,516.228455 3049.405762,518.666443 3035.000000,517.971741 
	C3035.000000,540.257141 3035.000000,561.878601 3035.000000,584.500000 
z"/>
<path fill="#0F96CB" opacity="1.000000" stroke="none" 
	d="
M3369.000000,313.000000 
	C3392.463867,313.000000 3415.427734,313.000000 3438.695312,313.000000 
	C3438.695312,318.710052 3438.695312,324.098022 3438.695312,329.823059 
	C3413.645752,329.823059 3388.711670,329.823059 3363.389404,329.823059 
	C3363.389404,342.534119 3363.389404,354.922943 3363.389404,367.826111 
	C3386.295898,367.826111 3409.351074,367.826111 3432.700684,367.826111 
	C3432.700684,373.388092 3432.700684,378.442719 3432.700684,383.835205 
	C3409.634033,383.835205 3386.699463,383.835205 3363.383057,383.835205 
	C3363.383057,397.881256 3363.383057,411.602600 3363.383057,425.837097 
	C3388.641113,425.837097 3414.028564,425.837097 3439.706055,425.837097 
	C3439.706055,431.397705 3439.706055,436.452423 3439.706055,441.755676 
	C3408.291504,441.755676 3377.026855,441.755676 3345.380859,441.755676 
	C3345.380859,399.117004 3345.380859,356.404053 3345.380859,313.000000 
	C3352.983643,313.000000 3360.741943,313.000000 3369.000000,313.000000 
z"/>
<path fill="#0F96CB" opacity="1.000000" stroke="none" 
	d="
M2487.706787,378.312683 
	C2476.023926,374.433777 2469.444824,366.980042 2467.924316,354.877869 
	C2465.866943,338.499420 2471.161133,325.163513 2485.161621,316.706635 
	C2495.516602,310.451782 2507.344971,308.968964 2519.723877,310.689789 
	C2529.183838,312.004791 2537.823242,314.565857 2545.675293,319.927887 
	C2554.126709,325.699341 2558.115967,333.911621 2559.012451,343.883118 
	C2559.241699,346.434845 2559.625244,348.972748 2559.969727,351.775452 
	C2554.016113,351.775452 2548.397217,351.775452 2542.935791,351.775452 
	C2541.456055,347.178162 2540.587646,342.287079 2538.386475,338.095917 
	C2533.654541,329.085419 2524.490967,327.176544 2515.550537,326.160767 
	C2507.880615,325.289337 2500.158447,326.310822 2493.468262,330.912811 
	C2486.755127,335.530548 2483.907959,342.145294 2485.123779,349.999390 
	C2486.144775,356.594055 2490.733887,360.412354 2497.185303,362.088348 
	C2511.008789,365.679413 2524.860596,369.178528 2538.601074,373.068146 
	C2550.921387,376.555756 2560.117920,383.907013 2562.389893,397.057098 
	C2564.500977,409.278229 2563.821045,421.604126 2554.891602,431.363647 
	C2549.077881,437.717682 2541.056641,440.877716 2532.708984,443.144440 
	C2519.264404,446.795135 2505.825684,447.025909 2492.574951,442.926941 
	C2472.131836,436.603119 2462.201172,419.276459 2463.395020,400.005096 
	C2468.130127,400.005096 2472.930176,399.792542 2477.686523,400.155823 
	C2478.862549,400.245636 2480.769287,402.135681 2480.863281,403.315918 
	C2482.253906,420.766388 2494.749756,429.600159 2510.468994,429.813110 
	C2517.546631,429.908997 2524.941162,428.907410 2531.684326,426.788086 
	C2546.220215,422.219452 2549.257568,406.286072 2541.392334,396.698212 
	C2537.683838,392.177521 2530.369629,390.055664 2524.279785,388.166748 
	C2512.350586,384.466675 2500.134033,381.691895 2487.706787,378.312683 
z"/>
<path fill="#0F96CB" opacity="1.000000" stroke="none" 
	d="
M3362.443848,548.774414 
	C3374.636719,552.301758 3386.441162,555.867310 3398.373047,558.937378 
	C3410.493896,562.056091 3422.956787,564.608826 3429.830811,576.573242 
	C3432.090088,580.505493 3433.490723,585.348694 3433.821777,589.882080 
	C3434.451172,598.512390 3434.439209,607.109131 3429.599609,615.149109 
	C3424.596924,623.459778 3416.966797,627.958984 3408.425537,630.651611 
	C3390.494385,636.304626 3372.495605,637.108948 3355.179199,628.019470 
	C3343.307373,621.787720 3336.676758,611.877991 3334.994629,598.606812 
	C3334.611572,595.585266 3334.177490,592.570129 3333.723145,589.231384 
	C3340.038818,589.231384 3345.649170,589.231384 3350.882080,589.231384 
	C3352.455322,594.561768 3353.263428,600.166443 3355.698486,604.941772 
	C3360.450195,614.261108 3369.577148,617.750183 3379.200439,618.780029 
	C3389.200439,619.850159 3399.150391,618.699829 3408.033691,613.017944 
	C3414.144287,609.109436 3416.846436,603.216003 3416.628662,596.426819 
	C3416.366211,588.249939 3412.379150,582.192444 3403.923584,579.937744 
	C3391.539551,576.635620 3379.120361,573.456299 3366.796631,569.941956 
	C3359.130859,567.755920 3351.357666,565.582825 3345.724854,559.246521 
	C3341.559082,554.560181 3339.075928,549.293335 3338.960205,542.883179 
	C3338.789795,533.438416 3338.854248,524.154114 3344.955322,516.091248 
	C3351.816406,507.023560 3360.706299,501.697754 3372.004395,499.933746 
	C3384.634521,497.961761 3396.842285,498.938446 3408.575439,504.039001 
	C3420.884277,509.389740 3428.610352,518.375427 3430.018311,532.138184 
	C3430.298828,534.878784 3430.800049,537.596680 3431.253418,540.695068 
	C3425.040039,540.695068 3419.291016,540.695068 3413.344482,540.695068 
	C3412.253174,529.059509 3407.551025,520.070679 3395.374023,516.796387 
	C3384.957764,513.995605 3374.615967,513.437622 3365.092529,519.462463 
	C3353.559326,526.758484 3353.068604,542.039551 3362.443848,548.774414 
z"/>
<path fill="#0F96CB" opacity="1.000000" stroke="none" 
	d="
M2348.879883,517.602905 
	C2337.591797,523.430359 2335.116455,534.400696 2338.037598,541.956665 
	C2341.022217,549.677551 2348.286377,551.055786 2354.954346,552.930420 
	C2367.613037,556.489136 2380.442139,559.442078 2393.096191,563.016602 
	C2406.375488,566.767822 2415.900391,578.913147 2415.129639,593.081360 
	C2414.708740,600.817688 2414.624268,608.237183 2410.475342,615.308289 
	C2405.535645,623.727844 2397.734619,628.033813 2389.239502,630.726379 
	C2371.126465,636.467163 2352.864014,637.091125 2335.554443,627.755005 
	C2324.212158,621.637573 2317.754150,611.748779 2315.999268,598.901367 
	C2315.580811,595.838867 2315.161377,592.776489 2314.689209,589.323853 
	C2320.934326,589.323853 2326.675293,589.323853 2332.712402,589.323853 
	C2333.203369,596.877319 2334.568604,604.203979 2340.314941,609.799377 
	C2349.503418,618.746643 2360.914795,620.050842 2372.804688,618.521057 
	C2380.053955,617.588379 2387.064209,615.707458 2392.603027,610.030212 
	C2400.499023,601.937195 2399.567871,584.191284 2385.706299,580.092468 
	C2373.261963,576.412659 2360.616699,573.417542 2348.100098,569.975708 
	C2340.060791,567.765015 2331.989746,565.473694 2326.257324,558.744507 
	C2322.445068,554.269470 2320.034424,549.247375 2319.974609,543.196472 
	C2319.881836,533.791748 2319.783203,524.583740 2325.832275,516.355530 
	C2332.409668,507.409119 2340.964600,501.976410 2351.706787,500.064056 
	C2364.721191,497.747253 2377.556396,498.656769 2389.748535,504.068634 
	C2401.979492,509.497772 2409.722656,518.519531 2411.022217,532.316101 
	C2411.277588,535.028015 2411.795410,537.715210 2412.241455,540.748291 
	C2405.890869,540.748291 2400.142334,540.748291 2394.410889,540.748291 
	C2392.367432,517.484558 2374.200439,513.519043 2357.203125,515.408447 
	C2354.489502,515.710144 2351.850586,516.681091 2348.879883,517.602905 
z"/>
<path fill="#0F96CB" opacity="1.000000" stroke="none" 
	d="
M2631.800781,313.001282 
	C2636.128418,312.667816 2634.958740,315.571411 2634.962402,317.424286 
	C2635.017334,344.083893 2634.672852,370.749268 2635.132324,397.401062 
	C2635.376953,411.591370 2642.321777,424.552765 2658.313965,428.769287 
	C2678.658203,434.133270 2697.962402,421.332458 2698.821289,400.370361 
	C2699.909668,373.811829 2699.670410,347.198853 2699.996338,320.609283 
	C2700.024658,318.296265 2700.000000,315.982605 2700.000000,313.335602 
	C2705.977051,313.335602 2711.700928,313.335602 2717.761475,313.335602 
	C2717.841309,314.785706 2717.989014,316.230469 2717.989746,317.675293 
	C2718.003662,343.668518 2718.251221,369.665436 2717.870850,395.653076 
	C2717.727539,405.433899 2715.785645,415.189667 2710.947021,423.896454 
	C2704.914062,434.752991 2695.384521,441.557129 2683.297363,443.695709 
	C2670.970947,445.876617 2658.588623,446.190704 2646.238770,442.204834 
	C2631.356445,437.401642 2622.783447,427.035278 2619.227783,412.597504 
	C2617.131104,404.083862 2616.301514,395.096771 2616.138672,386.299774 
	C2615.722900,363.813324 2616.000000,341.314087 2616.000000,318.819946 
	C2616.000000,317.032837 2616.000000,315.245728 2616.000000,313.000244 
	C2621.410156,313.000244 2626.365479,313.000244 2631.800781,313.001282 
z"/>
<path fill="#0F96CB" opacity="1.000000" stroke="none" 
	d="
M2067.631836,438.743896 
	C2046.859131,447.906250 2026.808594,448.457092 2007.381836,436.072754 
	C1993.604858,427.290253 1986.963989,413.860443 1984.171509,398.504059 
	C1982.562378,389.655579 1982.028687,380.487854 1982.136108,371.477264 
	C1982.344116,354.060730 1988.048950,338.248260 2000.160278,325.650970 
	C2008.021362,317.474396 2018.048584,312.404388 2029.766846,310.890289 
	C2042.542114,309.239624 2054.902832,309.518005 2066.844727,314.919403 
	C2081.674316,321.626831 2090.275635,333.047577 2093.016602,349.008331 
	C2093.207031,350.116760 2093.528564,351.202728 2093.950195,352.977142 
	C2088.404785,352.977142 2083.003418,353.114044 2077.622314,352.844910 
	C2076.704834,352.799042 2075.415771,351.152832 2075.072266,350.012756 
	C2069.088623,330.146790 2053.006592,323.866791 2034.895630,326.563354 
	C2015.245361,329.489166 2003.912231,346.533264 2001.911133,364.078278 
	C2000.251953,378.624146 1999.927856,392.922882 2006.031128,406.626068 
	C2011.921143,419.850464 2022.011475,428.094055 2037.815063,429.001617 
	C2049.260742,429.658844 2059.223633,426.642090 2066.915283,417.613251 
	C2071.815918,411.860596 2074.336914,405.045532 2075.933105,397.859436 
	C2076.593018,394.888184 2077.839355,393.768280 2080.906006,393.936951 
	C2085.374512,394.182709 2089.866211,394.000061 2094.335205,394.000061 
	C2094.889648,408.073364 2085.520264,428.731323 2067.631836,438.743896 
z"/>
<path fill="#0F96CB" opacity="1.000000" stroke="none" 
	d="
M2640.989014,612.947205 
	C2633.371094,603.397095 2630.786133,592.268494 2629.083740,580.955994 
	C2627.110840,567.845459 2627.630615,554.740845 2631.007324,541.842896 
	C2636.185791,522.063110 2652.930420,502.871216 2675.397949,499.905853 
	C2691.627441,497.763763 2707.428711,498.270142 2721.071777,508.182617 
	C2732.141846,516.225891 2738.644287,527.565369 2740.063232,541.997681 
	C2734.616455,541.997681 2729.629639,542.203918 2724.681641,541.856079 
	C2723.406250,541.766479 2721.523438,540.145081 2721.156250,538.870972 
	C2717.199951,525.141113 2708.061279,516.956848 2694.168213,515.166626 
	C2679.185547,513.236023 2665.858398,517.729492 2656.610107,530.159729 
	C2651.245605,537.369568 2648.976074,546.089539 2647.846191,555.205017 
	C2646.284180,567.808838 2646.916016,579.945557 2650.881836,592.096497 
	C2659.177490,617.513916 2686.832520,624.280212 2705.820068,612.904663 
	C2714.808350,607.519775 2719.314453,598.443054 2721.976807,588.500671 
	C2722.436279,586.783997 2722.836914,585.051514 2723.301514,583.179382 
	C2729.014160,583.179382 2734.642822,583.179382 2740.839600,583.179382 
	C2741.079346,590.367310 2738.759033,596.960876 2735.867920,603.148254 
	C2726.269531,623.688965 2709.865967,633.712463 2687.179932,634.080383 
	C2675.054688,634.276917 2663.601807,632.370483 2653.704590,625.121948 
	C2649.083008,621.737122 2645.248047,617.277588 2640.989014,612.947205 
z"/>
<path fill="#0F96CB" opacity="1.000000" stroke="none" 
	d="
M2933.042969,520.937256 
	C2946.374756,557.764160 2959.666260,594.192444 2973.095703,630.999390 
	C2966.883301,630.999390 2961.377686,631.206482 2955.908203,630.854980 
	C2954.527344,630.766174 2952.567871,629.156494 2952.051025,627.797913 
	C2947.676270,616.304688 2943.574707,604.707642 2939.340088,593.000488 
	C2923.940186,593.000488 2908.624023,592.922180 2893.311768,593.129211 
	C2891.882080,593.148560 2889.688965,594.673584 2889.183838,596.005310 
	C2884.816406,607.522583 2880.754150,619.155762 2876.609375,630.731689 
	C2870.397217,630.731689 2864.309326,630.731689 2857.583984,630.731689 
	C2860.348877,623.164734 2862.903076,616.013489 2865.570312,608.904785 
	C2872.757324,589.750732 2879.981201,570.610535 2887.211670,551.472839 
	C2893.123779,535.825439 2899.020020,520.171509 2905.091797,504.586060 
	C2905.533447,503.452118 2907.307373,502.187134 2908.525146,502.118988 
	C2913.506592,501.840210 2918.521729,501.839600 2923.502930,502.119965 
	C2924.713135,502.188080 2926.419922,503.469025 2926.907227,504.614197 
	C2929.132080,509.840149 2931.003906,515.216309 2933.042969,520.937256 
M2930.999756,568.501587 
	C2925.957520,554.220398 2920.915283,539.939148 2915.873047,525.657959 
	C2915.406494,525.820557 2914.939697,525.983154 2914.473145,526.145691 
	C2908.274170,543.270813 2902.075195,560.395935 2895.781250,577.783081 
	C2908.884521,577.783081 2921.288818,577.783081 2934.107422,577.783081 
	C2933.022949,574.746399 2932.051758,572.026367 2930.999756,568.501587 
z"/>
<path fill="#0F96CB" opacity="1.000000" stroke="none" 
	d="
M2209.997314,503.619629 
	C2213.475830,502.795837 2216.908203,502.102905 2220.349854,502.054810 
	C2231.056152,501.905151 2230.926025,502.047485 2234.505127,511.952606 
	C2248.132568,549.665039 2261.855713,587.342896 2275.526611,625.039490 
	C2276.129150,626.700867 2276.574463,628.419128 2277.359375,630.980408 
	C2270.833740,630.980408 2264.788574,631.135559 2258.767334,630.824036 
	C2257.789551,630.773499 2256.534668,628.792847 2256.059814,627.470276 
	C2252.381836,617.229370 2248.711426,606.979675 2245.400146,596.617310 
	C2244.527100,593.885193 2243.462891,592.923462 2240.644531,592.946777 
	C2226.489258,593.063721 2212.332275,593.039001 2198.176514,592.964417 
	C2195.656250,592.951172 2194.619873,593.722229 2193.727783,596.318787 
	C2190.088379,606.914429 2186.077393,617.387146 2181.951172,627.805420 
	C2181.412109,629.166687 2179.468018,630.756592 2178.076416,630.855042 
	C2172.943604,631.218262 2167.769775,630.999329 2162.075684,630.999329 
	C2166.030518,620.353699 2169.826172,610.012207 2173.711914,599.704651 
	C2181.099854,580.106079 2188.536865,560.525879 2195.958740,540.939941 
	C2200.619385,528.640015 2205.289551,516.343445 2209.997314,503.619629 
M2223.999756,535.492920 
	C2222.780762,531.963806 2221.561768,528.434753 2219.931885,523.715515 
	C2213.061523,542.608948 2206.682129,560.151611 2200.262207,577.806091 
	C2213.349609,577.806091 2225.894531,577.806091 2238.885498,577.806091 
	C2233.875732,563.761353 2228.977051,550.028320 2223.999756,535.492920 
z"/>
<path fill="#0F96CB" opacity="1.000000" stroke="none" 
	d="
M2933.802490,441.998657 
	C2928.365479,441.999756 2923.410400,441.999756 2918.137939,441.999756 
	C2918.137939,404.604675 2918.137939,367.672577 2918.137939,330.226532 
	C2904.095703,330.226532 2890.368652,330.226532 2876.323486,330.226532 
	C2876.323486,324.328766 2876.323486,318.941162 2876.323486,313.273346 
	C2910.770020,313.273346 2945.152832,313.273346 2979.767822,313.273346 
	C2979.767822,318.735809 2979.767822,324.007996 2979.767822,329.797119 
	C2965.739014,329.797119 2951.677490,329.797119 2937.000000,329.797119 
	C2937.000000,332.068695 2937.000000,333.834930 2937.000000,335.601196 
	C2937.000000,369.591431 2937.013916,403.581726 2936.962158,437.571869 
	C2936.959473,439.421844 2938.134033,442.329315 2933.802490,441.998657 
z"/>
<path fill="#0F96CB" opacity="1.000000" stroke="none" 
	d="
M2774.242188,441.989746 
	C2773.176758,441.028839 2772.077393,440.076935 2772.075439,439.122772 
	C2771.989990,397.331848 2772.001709,355.540771 2772.001709,313.375000 
	C2777.890381,313.375000 2783.614014,313.375000 2789.831055,313.375000 
	C2789.831055,350.643921 2789.831055,388.015167 2789.831055,425.885254 
	C2811.358643,425.885254 2832.408203,425.885254 2853.725830,425.885254 
	C2853.725830,431.438110 2853.725830,436.491272 2853.725830,441.997711 
	C2827.254639,441.997711 2800.987549,441.997711 2774.242188,441.989746 
z"/>
<path fill="#0F96CB" opacity="1.000000" stroke="none" 
	d="
M2813.000000,561.000000 
	C2812.983887,584.159424 2812.968994,606.818848 2812.940918,629.478271 
	C2812.940430,629.784485 2812.772461,630.090454 2812.594971,630.696655 
	C2806.953613,630.696655 2801.231934,630.696655 2795.253418,630.696655 
	C2795.253418,587.977051 2795.253418,545.380615 2795.253418,502.391846 
	C2800.856934,502.391846 2806.583252,502.391846 2813.000000,502.391846 
	C2813.000000,521.662048 2813.000000,541.081055 2813.000000,561.000000 
z"/>
<path fill="#FFFFFF" opacity="1.000000" stroke="none" 
	d="
M624.182739,280.700745 
	C636.061829,291.422028 644.333862,303.725067 647.278564,319.489929 
	C650.158752,334.909668 648.034973,349.530762 640.375427,362.877747 
	C630.578857,379.948517 615.975769,391.209412 596.302795,395.342468 
	C576.409363,399.521851 558.783325,394.524567 542.946106,382.399353 
	C530.519287,372.885223 522.820435,360.090240 519.580078,344.971313 
	C515.152100,324.311127 520.392639,305.849487 533.863586,289.590240 
	C543.631348,277.800598 556.175537,270.757080 570.937500,267.568176 
	C586.631592,264.177979 601.391785,267.296509 615.316467,274.881226 
	C618.309265,276.511444 621.064270,278.578186 624.182739,280.700745 
z"/>
<path fill="#FFFFFF" opacity="1.000000" stroke="none" 
	d="
M366.595093,528.242798 
	C374.415222,534.287537 381.212860,540.629272 386.537689,548.783020 
	C401.007233,570.939636 399.866302,600.856384 383.861450,621.726746 
	C375.221100,632.993713 364.588165,641.349792 350.973602,645.481262 
	C330.514008,651.689941 311.249756,648.744812 293.904205,636.259888 
	C278.283630,625.016541 269.108643,609.753967 266.926178,590.315796 
	C264.788391,571.275513 270.391388,554.942688 282.813721,540.681519 
	C293.516479,528.394409 306.856567,521.393616 323.071899,518.829163 
	C338.895325,516.326721 352.753387,520.884155 366.595093,528.242798 
z"/>
<path fill="#FFFFFF" opacity="1.000000" stroke="none" 
	d="
M395.964600,90.644554 
	C393.743622,99.987297 390.701874,108.525116 385.426270,116.147415 
	C374.536407,131.881271 359.725281,141.128860 340.744568,144.072784 
	C321.325745,147.084656 304.702637,141.414825 289.700531,129.279495 
	C277.303314,119.251282 269.957214,106.093201 267.226624,90.856812 
	C262.355865,63.678474 275.547729,35.546791 301.359283,22.317026 
	C326.082886,9.644910 350.076996,12.293985 371.820129,28.714825 
	C385.667999,39.172985 394.395447,53.763962 395.920349,71.640160 
	C396.444580,77.785873 395.995544,84.014610 395.964600,90.644554 
z"/>
<path fill="#FFFFFF" opacity="1.000000" stroke="none" 
	d="
M80.873032,266.000854 
	C94.488167,267.361115 106.781021,270.843445 117.703369,278.862640 
	C132.443405,289.684784 141.119720,303.961609 144.003281,321.891846 
	C147.583221,344.152252 140.346786,362.992188 124.762512,378.513611 
	C114.591057,388.644104 101.905678,394.312805 87.384102,396.091644 
	C63.615452,399.003174 44.536228,390.225555 29.470129,372.690765 
	C20.295225,362.012451 15.429270,349.177246 14.869802,334.639954 
	C14.052678,313.407684 21.904547,296.138885 37.390160,282.262817 
	C47.179962,273.490570 58.842369,268.210815 72.128914,266.987427 
	C74.897972,266.732452 77.653717,266.333008 80.873032,266.000854 
z"/>
<path fill="#FFFFFF" opacity="1.000000" stroke="none" 
	d="
M1341.864014,310.981018 
	C1359.064453,319.866364 1361.689941,350.432922 1345.217529,362.920563 
	C1339.228882,367.460419 1331.699341,371.846375 1324.511353,372.536682 
	C1309.294312,373.998138 1293.839600,372.982086 1278.238159,372.982086 
	C1278.238159,350.911133 1278.238159,328.199890 1278.238159,305.976349 
	C1292.720947,305.976349 1307.069458,306.077393 1321.415649,305.933716 
	C1328.593872,305.861847 1335.208374,307.609833 1341.864014,310.981018 
z"/>
<path fill="#FFFFFF" opacity="1.000000" stroke="none" 
	d="
M1713.000000,322.001526 
	C1713.000000,316.198669 1713.000000,310.895508 1713.000000,305.968658 
	C1726.265991,305.968658 1739.267090,305.851532 1752.264893,306.011078 
	C1760.515503,306.112366 1768.326416,308.378662 1775.089355,313.090576 
	C1782.734985,318.417511 1786.840576,325.792023 1787.091919,335.447021 
	C1787.375977,346.370880 1785.866333,356.427856 1776.739136,363.717163 
	C1769.357666,369.612305 1760.741821,373.297272 1751.449219,373.821899 
	C1738.863770,374.532471 1726.208008,373.998657 1713.000000,373.998657 
	C1713.000000,356.657776 1713.000000,339.579498 1713.000000,322.001526 
z"/>
<path fill="#FFFFFF" opacity="1.000000" stroke="none" 
	d="
M2524.957520,618.000000 
	C2517.737305,616.890320 2510.655029,616.730713 2504.335938,614.453674 
	C2494.249512,610.819214 2487.691895,602.716492 2484.132324,592.810303 
	C2477.750732,575.051331 2477.575928,557.015442 2485.122314,539.583374 
	C2490.950195,526.120667 2501.640381,518.461792 2516.349854,515.861694 
	C2527.479004,513.894470 2537.642090,515.967712 2546.902832,521.616821 
	C2557.846924,528.292969 2563.587891,538.952209 2565.940186,551.303406 
	C2568.841064,566.536194 2567.257324,581.532532 2560.630859,595.502869 
	C2554.063477,609.348511 2545.140869,617.785889 2524.957520,618.000000 
z"/>
<path fill="#FFFFFF" opacity="1.000000" stroke="none" 
	d="
M2232.277100,339.775879 
	C2239.865479,348.274323 2242.943115,358.128448 2244.066650,368.935883 
	C2245.579102,383.487213 2242.790039,397.025574 2236.046387,409.931915 
	C2229.493164,422.473785 2218.975098,428.342224 2205.166016,428.998535 
	C2195.199463,429.472198 2185.484131,428.550446 2176.740479,423.192474 
	C2165.889160,416.543121 2160.982666,405.663605 2158.324951,394.133972 
	C2155.462646,381.717987 2156.074951,368.908966 2160.064209,356.667267 
	C2165.607910,339.655365 2176.987549,329.325317 2195.231201,326.919220 
	C2209.727783,325.007324 2221.983398,328.821045 2232.277100,339.775879 
z"/>
<path fill="#FFFFFF" opacity="1.000000" stroke="none" 
	d="
M3253.280762,611.310547 
	C3242.940186,618.856445 3231.527100,618.733459 3219.956299,617.478271 
	C3196.113281,614.891968 3185.454590,591.329285 3184.958496,572.107361 
	C3184.650146,560.158997 3185.357422,548.321472 3191.202637,537.696594 
	C3197.845947,525.621216 3207.995117,518.227966 3222.050049,515.886475 
	C3252.929199,510.742249 3271.931641,535.748901 3272.109863,560.541565 
	C3272.202393,573.366882 3271.409668,585.915283 3264.818115,597.158752 
	C3261.833984,602.248718 3257.365967,606.468872 3253.280762,611.310547 
z"/>
<path fill="#FFFFFF" opacity="1.000000" stroke="none" 
	d="
M3042.738770,342.756256 
	C3049.531982,333.253082 3058.900879,328.989349 3069.693604,326.954224 
	C3078.336670,325.324432 3086.579102,326.635223 3094.494385,329.948730 
	C3108.972656,336.009888 3116.052979,348.099731 3118.843994,362.643921 
	C3122.158203,379.916260 3119.482910,396.550964 3110.548096,411.930969 
	C3104.320068,422.651459 3094.790283,428.300171 3082.578125,428.904388 
	C3073.757812,429.340698 3065.070801,429.133881 3056.510254,425.357758 
	C3043.201660,419.487457 3037.434570,408.175812 3034.248291,395.542053 
	C3030.641113,381.239746 3031.447510,366.671082 3037.048096,352.752808 
	C3038.424805,349.332123 3040.646973,346.251770 3042.738770,342.756256 
z"/>
<path fill="#FFFFFF" opacity="1.000000" stroke="none" 
	d="
M3216.043457,372.000000 
	C3212.912842,372.000000 3210.276123,372.000000 3207.321045,372.000000 
	C3207.321045,357.679810 3207.321045,343.648163 3207.321045,329.000000 
	C3220.213379,329.000000 3233.118652,328.839996 3246.015869,329.092010 
	C3250.190918,329.173615 3254.398926,330.102844 3258.497803,331.050537 
	C3267.935547,333.232697 3271.931641,343.866150 3270.166260,352.337738 
	C3267.003906,367.513336 3260.796875,371.997345 3244.965332,371.999756 
	C3235.489258,372.001190 3226.013184,372.000000 3216.043457,372.000000 
z"/>
<path fill="#FFFFFF" opacity="1.000000" stroke="none" 
	d="
M3035.000000,584.000000 
	C3035.000000,561.878601 3035.000000,540.257141 3035.000000,517.971741 
	C3049.405762,518.666443 3063.618164,516.228455 3077.569092,520.045715 
	C3086.856934,522.587097 3093.420410,528.742126 3096.988525,537.443420 
	C3105.175293,557.407715 3105.312256,577.543396 3095.872559,597.144775 
	C3090.201660,608.920166 3080.241699,614.849304 3067.086426,614.979187 
	C3056.616211,615.082520 3046.144531,615.000000 3035.000000,615.000000 
	C3035.000000,604.669983 3035.000000,594.584961 3035.000000,584.000000 
z"/>
<path fill="#FFFFFF" opacity="1.000000" stroke="none" 
	d="
M2931.040039,568.903931 
	C2932.051758,572.026367 2933.022949,574.746399 2934.107422,577.783081 
	C2921.288818,577.783081 2908.884521,577.783081 2895.781250,577.783081 
	C2902.075195,560.395935 2908.274170,543.270813 2914.473145,526.145691 
	C2914.939697,525.983154 2915.406494,525.820557 2915.873047,525.657959 
	C2920.915283,539.939148 2925.957520,554.220398 2931.040039,568.903931 
z"/>
<path fill="#FFFFFF" opacity="1.000000" stroke="none" 
	d="
M2224.039062,535.894043 
	C2228.977051,550.028320 2233.875732,563.761353 2238.885498,577.806091 
	C2225.894531,577.806091 2213.349609,577.806091 2200.262207,577.806091 
	C2206.682129,560.151611 2213.061523,542.608948 2219.931885,523.715515 
	C2221.561768,528.434753 2222.780762,531.963806 2224.039062,535.894043 
z"/>
</svg>