<?xml version="1.0" encoding="UTF-8" standalone="no"?>
<!-- Created with Inkscape (http://www.inkscape.org/) -->

<svg
   version="1.1"
   id="svg2"
   width="512"
   height="150.39999"
   viewBox="0 0 512 150.39999"
   sodipodi:docname="logo.svg"
   inkscape:version="1.1.2 (0a00cf5339, 2022-02-04)"
   xmlns:inkscape="http://www.inkscape.org/namespaces/inkscape"
   xmlns:sodipodi="http://sodipodi.sourceforge.net/DTD/sodipodi-0.dtd"
   xmlns="http://www.w3.org/2000/svg"
   xmlns:svg="http://www.w3.org/2000/svg">
  <defs
     id="defs6" />
  <sodipodi:namedview
     id="namedview4"
     pagecolor="#ffffff"
     bordercolor="#666666"
     borderopacity="1.0"
     inkscape:pageshadow="2"
     inkscape:pageopacity="0.0"
     inkscape:pagecheckerboard="0"
     showgrid="false"
     inkscape:zoom="1.8050558"
     inkscape:cx="233.23379"
     inkscape:cy="150.13386"
     inkscape:window-width="1920"
     inkscape:window-height="1051"
     inkscape:window-x="1920"
     inkscape:window-y="0"
     inkscape:window-maximized="1"
     inkscape:current-layer="g8" />
  <g
     inkscape:groupmode="layer"
     inkscape:label="Image"
     id="g8">
    <g
       id="g812"
       transform="translate(0.5226788,-4.0300013)">
      <path
         style="fill:#007fe0;stroke-width:0.64"
         d="M 59.52,104.55146 C 47.948186,102.22353 39.309229,97.587635 31.07454,89.286874 24.373816,82.532385 18.784372,71.607976 17.256719,62.280332 16.466947,57.45809 16.471796,49.061636 17.266776,44.869729 c 1.486811,-7.839924 8.738178,-11.378581 14.666512,-7.157235 2.948293,2.09937 3.908836,5.370514 3.322093,11.313444 -1.097436,11.115572 1.734476,20.208233 8.482944,27.236905 13.40078,13.957196 31.182853,14.134821 46.967992,0.469158 1.136473,-0.983878 3.061702,-1.975609 4.278285,-2.20384 6.953558,-1.304492 12.704068,6.316858 9.639318,12.775328 -2.34571,4.943206 -16.103837,13.589081 -25.58392,16.077431 -3.856077,1.01215 -16.529558,1.77213 -19.52,1.17054 z m 74.01043,-2.08612 c -1.00626,-0.66341 -2.39359,-2.02951 -3.08294,-3.035779 -1.1045,-1.612268 -1.19241,-2.399667 -0.74017,-6.629567 1.48802,-13.917625 0.0213,-21.640255 -5.49369,-28.925367 -11.5652,-15.277284 -30.187665,-17.660042 -46.19372,-5.910521 -4.251897,3.121181 -8.358764,3.670275 -11.754496,1.571596 -3.183875,-1.967742 -4.402404,-4.572294 -4.01677,-8.58567 0.276975,-2.882528 0.645597,-3.540804 3.357846,-5.996362 3.647398,-3.302203 10.348723,-7.311187 15.101804,-9.034466 8.0325,-2.912268 11.086458,-3.495358 18.491706,-3.530609 6.56687,-0.03126 8.0559,0.185888 13.81777,2.015054 16.57881,5.263118 30.23584,19.671864 34.15959,36.03979 2.12817,8.877669 1.59587,23.857828 -1.02806,28.931946 -2.07971,4.021725 -8.73407,5.651165 -12.61887,3.089955 z"
         id="path816" />
      <path
         style="fill:#2f3943;stroke-width:0.64"
         d="m 437.20921,136.9746 c -4.52076,-1.09698 -4.23066,1.64657 -4.41951,-41.797173 -0.19631,-45.16293 -0.59783,-42.058903 5.91702,-45.742451 6.74227,-3.812137 11.7065,-4.956306 21.45328,-4.944615 7.28037,0.0087 9.33409,0.241281 13.05074,1.477772 9.54724,3.176269 16.09841,9.775495 19.33934,19.481207 1.5353,4.597811 1.75794,6.251071 1.74405,12.950655 -0.0137,6.620991 -0.25673,8.407775 -1.76232,12.957887 -3.01558,9.113568 -7.96208,15.081548 -15.61897,18.844348 -2.53815,1.24732 -4.22634,1.50521 -11.11198,1.69748 l -8.11914,0.22672 -0.43633,-2.32585 c -0.88844,-4.73578 0.99642,-8.68059 4.14765,-8.68059 0.92107,0 3.68126,-0.55641 6.13378,-1.23647 6.08057,-1.686093 9.21962,-4.936672 11.20496,-11.603091 1.16237,-3.90302 1.35457,-5.815225 1.1193,-11.136287 -0.45726,-10.34167 -3.74216,-16.78498 -10.20202,-20.011194 -5.53014,-2.761879 -15.55459,-2.477562 -20.75127,0.588554 L 446.72,59.006429 v 38.613654 c 0,36.227717 -0.0692,38.633197 -1.12,38.930027 -2.54897,0.72003 -6.37514,0.91359 -8.39079,0.42449 z M 200,111.57713 c -5.38219,-1.15153 -12.67947,-4.84087 -14.42579,-7.29335 -2.68609,-3.77227 -2.03063,-8.069156 1.59308,-10.443498 1.53073,-1.002976 1.74264,-0.99984 3.39271,0.05018 0.968,0.615981 1.904,1.304851 2.08,1.530822 0.67443,0.865907 6.87917,3.660729 10.3385,4.656806 5.17393,1.48977 13.6752,1.37799 17.99044,-0.236537 3.68691,-1.37945 7.02475,-4.359885 8.11181,-7.243219 0.96202,-2.551686 0.84201,-7.870355 -0.22361,-9.910118 -1.37932,-2.640217 -4.17266,-4.998278 -8.05714,-6.801599 -1.936,-0.898759 -3.83064,-1.636928 -4.21032,-1.640365 -1.12878,-0.01024 -13.74761,-4.177997 -17.54968,-5.796339 -11.02349,-4.692139 -16.15385,-13.596923 -14.24707,-24.72868 0.97458,-5.689512 4.22545,-10.47404 9.53596,-14.034714 5.49668,-3.685497 11.20241,-5.022258 21.03111,-4.927254 11.39139,0.110108 19.56049,2.563866 23.84,7.160826 2.00113,2.149572 1.9813,6.419233 -0.0407,8.769978 l -1.48073,1.721446 -4.77224,-2.264622 c -6.20707,-2.945507 -11.18892,-3.878318 -19.03073,-3.56335 -5.70322,0.229072 -6.67355,0.451394 -9.40962,2.155934 -3.66226,2.281528 -5.42598,5.309688 -5.42598,9.315893 0,5.765376 3.90215,8.979526 14.72,12.124666 15.75027,4.579176 23.01481,8.562984 27.19326,14.912552 2.83086,4.30176 3.75731,8.245343 3.39745,14.461688 -0.22411,3.87136 -0.71269,5.866547 -2.11561,8.639385 -3.39332,6.706769 -10.39269,11.744419 -18.79122,13.524569 -5.47233,1.15992 -17.70718,1.08629 -23.44388,-0.1411 z m 75.22164,0.0385 c -10.56446,-2.83918 -18.57549,-11.03932 -21.5079,-22.015606 -1.3311,-4.982432 -1.52866,-15.971224 -0.37971,-21.119999 0.9484,-4.250054 4.10986,-10.503857 7.09807,-14.040965 5.8418,-6.914853 16.02643,-10.731681 26.92217,-10.089446 7.21373,0.425205 11.7846,1.839399 16.88288,5.22344 8.91745,5.919068 13.84285,16.320412 13.84285,29.233012 0,6.716442 -0.93354,10.795404 -3.86187,16.873958 -4.02378,8.352456 -10.45783,13.618416 -19.52472,15.980036 -4.73332,1.23287 -14.80444,1.20988 -19.47177,-0.0444 z m 18.25432,-11.775824 c 4.23024,-2.342522 6.54762,-5.060474 8.41795,-9.873036 1.53853,-3.958816 1.75907,-5.409958 1.75782,-11.566732 -10e-4,-7.41687 -0.84369,-10.845139 -3.85197,-15.679999 -2.64444,-4.250131 -7.16174,-6.918013 -12.6776,-7.4873 -9.4133,-0.971538 -16.92728,4.499164 -19.39163,14.118467 -1.25189,4.886605 -0.87749,16.639589 0.66217,20.786642 1.98011,5.333356 6.06704,9.124812 11.9273,11.064952 2.85375,0.94479 10.40035,0.16294 13.15596,-1.362994 z M 379.2,111.75105 c -4.90666,-1.19613 -10.82199,-4.66769 -14.40023,-8.45115 -11.81514,-12.49277 -11.92076,-36.91824 -0.21436,-49.570606 2.88851,-3.121914 8.19986,-6.406681 13.01459,-8.048777 4.83989,-1.650677 18.04809,-1.637283 22.72,0.02304 14.15073,5.028943 22.49752,19.162649 21.199,35.896439 -0.4948,6.37632 -1.21522,9.009363 -4.07629,14.898252 -3.59006,7.389332 -10.58528,12.951972 -19.06508,15.160682 -4.47426,1.1654 -14.57588,1.21392 -19.17763,0.0921 z m 18.30328,-12.298685 c 4.24511,-2.274848 7.85874,-7.269869 8.93557,-12.351385 0.40315,-1.902458 0.63134,-6.660518 0.50708,-10.573471 -0.20673,-6.509786 -0.40448,-7.477139 -2.32671,-11.381728 -5.10836,-10.376526 -17.56449,-13.353664 -26.67841,-6.376407 -6.00023,4.593547 -8.75623,13.763709 -7.39624,24.609865 1.03634,8.264998 4.20029,13.564121 9.73523,16.30501 3.75333,1.858631 4.66732,2.032131 9.54348,1.811541 3.1849,-0.14408 5.07319,-0.6465 7.68,-2.043425 z M 334.08,111.1954 c -1.50604,-0.53478 -2.60666,-1.52937 -3.35901,-3.03541 -1.03169,-2.06523 -1.11908,-5.56686 -1.12,-44.879994 L 329.6,20.639999 l 2,-0.4 c 4.22342,-0.844684 8.64286,-0.450752 10.39369,0.926451 l 1.68631,1.326451 v 44.075773 c 0,24.241675 -0.23254,44.219496 -0.51677,44.395156 -1.31388,0.81203 -7.03764,0.95795 -9.08323,0.23157 z"
         id="path814" />
    </g>
  </g>
</svg>
